<svg xmlns="http://www.w3.org/2000/svg" width="447" height="257" viewBox="0 0 447 257"><g fill="none" fill-rule="nonzero"><path fill="#1694DD" d="M17.12 202.28a.51.51 0 0 1-.41-.2l-9.95-13.71a.49.49 0 0 1 .11-.7.51.51 0 0 1 .7.11l9.93 13.71a.49.49 0 0 1-.11.7.52.52 0 0 1-.27.09zm10.18-19.01a.49.49 0 0 1-.4-.21l-6.24-8.6a.49.49 0 0 1 .11-.7.5.5 0 0 1 .69.11l6.3 8.61a.5.5 0 0 1-.11.69.47.47 0 0 1-.35.1zm36.35 36.52a.53.53 0 0 1-.41-.2L57 211a.501.501 0 1 1 .81-.59l6.24 8.59a.49.49 0 0 1-.11.7.52.52 0 0 1-.29.09zm-48.64-53.46a.49.49 0 0 1-.4-.21l-9.7-13.36a.5.5 0 0 1 .81-.59l9.7 13.37a.51.51 0 0 1-.11.7.53.53 0 0 1-.3.09zm26.55 62.37a.49.49 0 0 1-.41-.21l-9.69-13.36a.501.501 0 0 1 .81-.59l9.69 13.36a.51.51 0 0 1-.11.7.46.46 0 0 1-.29.1zm-1.8-61.23a.48.48 0 0 1-.4-.21l-11-15.13a.501.501 0 0 1 .81-.59l11 15.13a.5.5 0 0 1-.12.7.45.45 0 0 1-.29.1zm-20-27.65a.51.51 0 0 1-.41-.2L6.38 121.8a.501.501 0 0 1 .81-.59L20.13 139a.51.51 0 0 1-.11.7.52.52 0 0 1-.26.12zm37.37 18.51a.49.49 0 0 1-.41-.21l-36.68-50.47a.501.501 0 0 1 .81-.59l36.68 50.47a.51.51 0 0 1-.11.7.46.46 0 0 1-.29.1zM22.52 243a.52.52 0 0 1-.4-.21l-22-31.16a.501.501 0 0 1 .81-.59l22 31.16a.51.51 0 0 1-.11.7.57.57 0 0 1-.3.1zM13.76 98.61a.49.49 0 0 1-.4-.21l-9.6-13.13a.49.49 0 0 1 .11-.7.51.51 0 0 1 .7.11l9.54 13.13a.51.51 0 0 1-.35.8zm64.73 56.14a.52.52 0 0 1-.41-.21l-26.47-36.39a.501.501 0 0 1 .81-.59L78.89 154a.51.51 0 0 1-.11.7.53.53 0 0 1-.29.05zm-33.85-46.53a.49.49 0 0 1-.4-.21l-21-28.87a.501.501 0 0 1 .81-.59l21 28.87a.51.51 0 0 1-.11.7.47.47 0 0 1-.3.1zM18.82 72.71a.49.49 0 0 1-.4-.2l-6.76-9.29a.5.5 0 0 1 .484-.785.49.49 0 0 1 .326.205l6.75 9.28a.49.49 0 0 1-.11.7.52.52 0 0 1-.29.09zm83.02 81.2a.51.51 0 0 1-.4-.2L79.76 124a.5.5 0 0 1 .81-.58l21.64 29.73a.51.51 0 0 1-.11.7.53.53 0 0 1-.26.06zm-28.28-38.86a.51.51 0 0 1-.41-.2l-47-64.58a.48.48 0 0 1 .11-.69.49.49 0 0 1 .7.11l47 64.57a.51.51 0 0 1-.11.7.52.52 0 0 1-.29.09zm-55.5-76.24a.51.51 0 0 1-.41-.2L3.76 19.55a.51.51 0 0 1 .11-.7.49.49 0 0 1 .7.11L18.46 38a.49.49 0 0 1-.11.7.52.52 0 0 1-.29.11zm94.28 96.6a.51.51 0 0 1-.41-.2L71.1 79.16a.501.501 0 0 1 .81-.59l40.85 56.05a.5.5 0 0 1-.11.7.52.52 0 0 1-.31.09zM63.76 68.77a.52.52 0 0 1-.4-.21l-6.51-8.94a.5.5 0 0 1 .81-.58L64.19 68a.51.51 0 0 1-.11.7.54.54 0 0 1-.32.07zM49.98 49.32a.49.49 0 0 1-.7-.11L13.43 0h1.24l35.42 48.62a.51.51 0 0 1-.11.7zm84.78 83.92a.49.49 0 0 1-.41-.21l-15.9-21.81a.501.501 0 0 1 .81-.59l15.9 21.81a.51.51 0 0 1-.11.7.46.46 0 0 1-.29.1zm-24.48-33.51a.49.49 0 0 1-.4-.21l-15.32-21a.501.501 0 0 1 .81-.59l15.32 21a.5.5 0 0 1-.11.69.47.47 0 0 1-.3.11zM87.81 68.4a.49.49 0 0 1-.7-.11L37.32 0h1.24l49.35 67.7a.5.5 0 0 1-.1.7zm48.73 34.5a.49.49 0 0 1-.4-.21l-20-27.37a.48.48 0 0 1 .11-.69.48.48 0 0 1 .69.1l20 27.37a.51.51 0 0 1-.11.7.49.49 0 0 1-.29.1zm-26.02-35.66a.51.51 0 0 1-.4-.2l-17-23.36a.501.501 0 0 1 .81-.59l17 23.36a.5.5 0 0 1-.41.79zm58.48 47.3a.49.49 0 0 1-.41-.21l-14.54-19.9a.51.51 0 0 1 .11-.7.49.49 0 0 1 .7.11l14.54 19.9a.51.51 0 0 1-.11.7.46.46 0 0 1-.29.1zm-24.8-33.95a.51.51 0 0 1-.4-.2l-42.41-58.47a.501.501 0 0 1 .81-.59l42.41 58.47a.51.51 0 0 1-.11.7.53.53 0 0 1-.3.09zm42.94 25.98a.49.49 0 0 1-.41-.21l-11.35-15.52a.51.51 0 0 1 .11-.7.5.5 0 0 1 .7.11l11.35 15.52a.51.51 0 0 1-.11.7.46.46 0 0 1-.29.1zm-20.82-28.48a.49.49 0 0 1-.41-.21l-23.15-31.72a.5.5 0 0 1 .11-.7.51.51 0 0 1 .7.11l23.19 31.72a.51.51 0 0 1-.11.7.46.46 0 0 1-.33.1zm-30.46-41.67a.49.49 0 0 1-.4-.21l-15.7-21.46a.501.501 0 0 1 .81-.59l15.69 21.46a.51.51 0 0 1-.11.7.49.49 0 0 1-.29.1zM112.65 4.17a.52.52 0 0 1-.7-.11l-3-4h1.24l2.57 3.41a.5.5 0 0 1-.11.7zm132.36 149.74a.51.51 0 0 1-.41-.2L222.96 124a.5.5 0 0 1 .81-.58l21.64 29.73a.51.51 0 0 1-.11.7.52.52 0 0 1-.29.06zm-28.25-38.86a.49.49 0 0 1-.4-.2l-47-64.58a.5.5 0 0 1 .484-.785.49.49 0 0 1 .326.205l47 64.57a.49.49 0 0 1-.11.7.5.5 0 0 1-.3.09zm-55.54-76.24a.51.51 0 0 1-.4-.2l-13.88-19.06a.51.51 0 0 1 .11-.7.49.49 0 0 1 .7.11L161.63 38a.51.51 0 0 1-.11.7.55.55 0 0 1-.3.11zm-18.65-26.13a.54.54 0 0 1-.3.1.52.52 0 0 1-.4-.21L132.76 0H134l8.71 12a.51.51 0 0 1-.14.68zM255.5 135.41a.49.49 0 0 1-.4-.2l-40.83-56.05a.5.5 0 1 1 .8-.59l40.83 56.05a.49.49 0 0 1-.11.7.5.5 0 0 1-.29.09zm-48.55-66.64a.52.52 0 0 1-.41-.21l-6.51-8.94a.5.5 0 0 1 .484-.785.49.49 0 0 1 .326.205l6.51 8.96a.51.51 0 0 1-.11.7.53.53 0 0 1-.29.07zm-13.81-19.45a.48.48 0 0 1-.69-.11L156.62 0h1.23l35.4 48.59a.49.49 0 0 1-.11.73zm84.74 83.92a.49.49 0 0 1-.41-.21l-15.9-21.81a.501.501 0 0 1 .81-.59l15.9 21.81a.5.5 0 0 1-.11.7.46.46 0 0 1-.29.1zm-24.43-33.51a.49.49 0 0 1-.41-.21l-15.28-21.01a.501.501 0 0 1 .81-.59l15.32 21a.5.5 0 0 1-.11.69.46.46 0 0 1-.33.12zM230.97 68.4a.49.49 0 0 1-.7-.11L180.5 0h1.26l49.32 67.7a.51.51 0 0 1-.11.7zm48.73 34.5a.49.49 0 0 1-.4-.21l-20-27.37a.501.501 0 0 1 .81-.59l20 27.37a.51.51 0 0 1-.11.7.47.47 0 0 1-.3.1zm-26.02-35.66a.51.51 0 0 1-.4-.2l-17-23.36a.5.5 0 0 1 .11-.7.51.51 0 0 1 .7.11l17 23.36a.5.5 0 0 1-.41.79zm-25.72-35.75a.53.53 0 0 1-.3.09.51.51 0 0 1-.4-.2L204.29 0h1.25l22.53 30.75a.51.51 0 0 1-.11.74zm84.2 83.05a.48.48 0 0 1-.4-.21l-14.54-19.9a.49.49 0 0 1 .11-.7.48.48 0 0 1 .69.11l14.54 19.9a.49.49 0 0 1-.11.7.45.45 0 0 1-.29.1zm-24.79-33.95a.51.51 0 0 1-.41-.2l-42.4-58.47a.49.49 0 0 1 .11-.7.5.5 0 0 1 .69.11l42.4 58.47a.51.51 0 0 1-.11.7.52.52 0 0 1-.28.09zm42.93 25.98a.49.49 0 0 1-.41-.21l-11.34-15.52a.5.5 0 1 1 .8-.59l11.35 15.52a.51.51 0 0 1-.11.7.46.46 0 0 1-.29.1zm-20.82-28.48a.48.48 0 0 1-.4-.21l-23.19-31.72a.501.501 0 0 1 .81-.59l23.18 31.72a.49.49 0 0 1-.11.7.45.45 0 0 1-.29.1zm-30.46-41.67a.49.49 0 0 1-.4-.21l-15.69-21.46a.501.501 0 0 1 .81-.59l15.69 21.46a.51.51 0 0 1-.11.7.47.47 0 0 1-.3.1zm84.29 148.16a.49.49 0 0 1-.4-.21l-42.41-58.46a.501.501 0 0 1 .81-.59l42.45 58.47a.5.5 0 0 1-.11.69.47.47 0 0 1-.34.1zM328 170.48a.49.49 0 0 1-.41-.21l-42.41-58.46a.501.501 0 0 1 .81-.59l42.41 58.46a.51.51 0 0 1-.11.7.46.46 0 0 1-.29.1zm93.99 16.14a.51.51 0 0 1-.41-.2l-14.54-19.91a.501.501 0 0 1 .81-.59l14.54 19.91a.51.51 0 0 1-.11.7.52.52 0 0 1-.29.09zm18.13-7.97a.51.51 0 0 1-.4-.2l-11.35-15.53a.501.501 0 0 1 .81-.59l11.35 15.53a.51.51 0 0 1-.11.7.53.53 0 0 1-.3.09zm-2.3 63.91a.51.51 0 0 1-.4-.2l-42.41-58.47a.501.501 0 0 1 .81-.59l42.41 58.47a.51.51 0 0 1-.11.7.53.53 0 0 1-.3.09zm-82.85-102.15a.49.49 0 0 1-.4-.21l-15.69-21.46a.51.51 0 0 1 .11-.7.5.5 0 0 1 .7.11l15.68 21.46a.5.5 0 0 1-.4.8zM255.81 4.17a.5.5 0 0 1-.29.09.49.49 0 0 1-.4-.2l-2.93-4h1.23l2.5 3.42a.49.49 0 0 1-.11.69zm20.31 0a.55.55 0 0 1-.3.09.49.49 0 0 1-.4-.2l-2.93-4h1.27l2.5 3.42a.5.5 0 0 1-.14.69zM235.09 9a.49.49 0 0 1-.7-.11L227.91 0h1.24l6.05 8.28a.51.51 0 0 1-.11.72zm131.49 115.77a.49.49 0 0 1-.4-.21l-21.64-29.73a.5.5 0 1 1 .8-.59L366.99 124a.51.51 0 0 1-.11.7.49.49 0 0 1-.3.07zM338.3 85.91a.49.49 0 0 1-.41-.21l-47-64.57a.501.501 0 0 1 .81-.59l47 64.58a.5.5 0 0 1-.11.69.46.46 0 0 1-.29.1zm108.46 12.94v1.7l-10.55-14.47a.501.501 0 0 1 .81-.59l9.74 13.36zm-8.21-48.79a.51.51 0 0 1-.41-.2L416.5 20.13a.501.501 0 0 1 .81-.59l21.64 29.73a.51.51 0 0 1-.11.7.52.52 0 0 1-.29.09zm-8.58 27.1a.51.51 0 0 1-.4-.2l-47-64.58a.501.501 0 0 1 .81-.59l47 64.58a.51.51 0 0 1-.11.7.55.55 0 0 1-.3.09zM402.3 70.7a.49.49 0 0 1-.4-.21l-9.28-12.7a.5.5 0 1 1 .8-.59l9.34 12.7a.51.51 0 0 1-.46.8zm44.46 55.51v1.7l-29.39-40.35a.48.48 0 0 1 .11-.69.49.49 0 0 1 .7.11l28.58 39.23zm-23.14 7.63a.51.51 0 0 1-.4-.2l-9.28-12.7a.5.5 0 0 1 .11-.7.51.51 0 0 1 .7.11l9.28 12.7a.51.51 0 0 1-.11.7.53.53 0 0 1-.3.09zm12.84-113.99a.49.49 0 0 1-.4-.2L426.76 7a.5.5 0 1 1 .8-.59l9.28 12.7a.5.5 0 0 1-.1.7.55.55 0 0 1-.28.04zm10.3 140.2v1.71l-8-11a.49.49 0 0 1 .11-.7.51.51 0 0 1 .7.11l7.19 9.88zM360.5 83.51a.51.51 0 0 1-.41-.2L335.84 50a.501.501 0 0 1 .81-.59L360.9 82.7a.51.51 0 0 1-.11.7.52.52 0 0 1-.29.11zM310.31 23.2a.52.52 0 0 1-.27.1.49.49 0 0 1-.4-.21l-1.57-2.16-3.11-4.27-4.05-5.55-4.15-5.7-3.94-5.36h1.24l3.77 5.17 2.64 3.63 5.55 7.61 4.4 6a.51.51 0 0 1-.11.74zm18.21 16.42a.49.49 0 0 1-.4-.2l-6.51-8.94a.5.5 0 1 1 .8-.59l6.52 8.94a.51.51 0 0 1-.11.7.55.55 0 0 1-.3.09zm36.24 16.95a.51.51 0 0 1-.4-.2l-5.1-7a.49.49 0 0 1 .11-.7.5.5 0 0 1 .69.11l5.11 7a.51.51 0 0 1-.11.7.53.53 0 0 1-.3.09zm-12.51-17.22a.51.51 0 0 1-.41-.2l-10.62-14.57a.501.501 0 0 1 .81-.59l10.62 14.57a.5.5 0 0 1-.11.7.52.52 0 0 1-.29.09zM327.62 10.1a.55.55 0 0 1-.3.09.51.51 0 0 1-.4-.2L319.68.06h1.24l6.84 9.34a.51.51 0 0 1-.14.7zm36.9 13.29a.49.49 0 0 1-.4-.21l-6.31-8.64a.501.501 0 0 1 .81-.59l6.31 8.64a.51.51 0 0 1-.11.7.47.47 0 0 1-.3.1z"/><path fill="#1694DD" d="M94.07 181.24c-.687-9.976-9.052-17.675-19.05-17.534-10 .14-18.144 8.072-18.55 18.064a6.71 6.71 0 0 0-7.18 2.68 10.68 10.68 0 0 0-20.15 3.37 6.77 6.77 0 0 0-9.93 4.73 7 7 0 0 0 0 2.62 2 2 0 0 1-1.95 2.34h-3.67a2.35 2.35 0 0 0-2.36 2.36 2.36 2.36 0 0 0 2.36 2.36h69.44a2.36 2.36 0 0 0 2.36-2.36c0-.432-.12-.854-.35-1.22a18.82 18.82 0 0 0 9.03-17.41z"/><path fill="#1188D8" d="M83.03 202.73H13.59a2.86 2.86 0 0 1 0-5.72h3.71a1.5 1.5 0 0 0 1.17-.56c.27-.33.376-.763.29-1.18a7.37 7.37 0 0 1 0-2.81 7.29 7.29 0 0 1 6.06-5.9 7.4 7.4 0 0 1 4 .51 11.18 11.18 0 0 1 20.61-3.53 7.18 7.18 0 0 1 6.63-2.38 19.33 19.33 0 0 1 20.89-17.9c9.478.849 16.942 8.448 17.62 17.94a19.3 19.3 0 0 1-8.88 17.63c.127.318.194.657.2 1a2.86 2.86 0 0 1-2.86 2.9zM13.59 198a1.86 1.86 0 1 0 0 3.72h69.44a1.86 1.86 0 0 0 1.86-1.86 1.76 1.76 0 0 0-.28-1 .51.51 0 0 1 0-.38.5.5 0 0 1 .22-.31 18.29 18.29 0 0 0 8.79-16.95 18.33 18.33 0 0 0-30.49-12.42 18.2 18.2 0 0 0-6.16 13 .51.51 0 0 1-.2.38.49.49 0 0 1-.42.08 6.21 6.21 0 0 0-6.65 2.49.5.5 0 0 1-.86-.07 10.17 10.17 0 0 0-19.2 3.21.5.5 0 0 1-.74.37 6.27 6.27 0 0 0-9.14 6.8 2.42 2.42 0 0 1-.49 2 2.5 2.5 0 0 1-1.95.93l-3.73.01z"/><path fill="#1694DD" d="M221.76 27.11c-.731-9.944-9.084-17.597-19.055-17.456-9.97.14-18.104 8.025-18.555 17.986a6.71 6.71 0 0 0-7.18 2.68 10.68 10.68 0 0 0-20.21 3.37 6.77 6.77 0 0 0-9.93 4.73 7 7 0 0 0 0 2.62 2 2 0 0 1-1.94 2.34h-3.72a2.36 2.36 0 0 0-2.36 2.36 2.36 2.36 0 0 0 2.36 2.36h69.44a2.36 2.36 0 0 0 2.36-2.36 2.32 2.32 0 0 0-.35-1.22 18.83 18.83 0 0 0 9.14-17.41z"/><path fill="#1188D8" d="M210.67 48.6h-69.44a2.86 2.86 0 0 1 0-5.72h3.72a1.46 1.46 0 0 0 1.16-.56 1.4 1.4 0 0 0 .3-1.18 7.28 7.28 0 0 1 10-8.2 11.18 11.18 0 0 1 20.61-3.52 7.16 7.16 0 0 1 6.62-2.42 19.33 19.33 0 0 1 20.89-17.86c9.502.816 17.002 8.418 17.69 17.93a19.31 19.31 0 0 1-8.89 17.62 2.86 2.86 0 0 1-2.66 3.91zm-69.44-4.72a1.86 1.86 0 1 0 0 3.72h69.44a1.86 1.86 0 0 0 1.86-1.86 1.84 1.84 0 0 0-.27-1 .5.5 0 0 1 .17-.69 18.33 18.33 0 0 0 8.79-17c-.654-9.017-7.763-16.223-16.77-17a18.35 18.35 0 0 0-19.84 17.53.51.51 0 0 1-.2.38.49.49 0 0 1-.42.08 6.21 6.21 0 0 0-6.65 2.49.51.51 0 0 1-.86-.06 10.17 10.17 0 0 0-19.2 3.2.5.5 0 0 1-.27.39.52.52 0 0 1-.47 0 6.2 6.2 0 0 0-4-.7 6.27 6.27 0 0 0-5.22 5.08 6.4 6.4 0 0 0 0 2.43 2.4 2.4 0 0 1-.49 2 2.5 2.5 0 0 1-1.94.93l-3.66.08zm245.53-8.59 6.68 16.19 8.24-1.48 2.48 8.56 5.95-1.07 6.86 15.85-5.4-19.53-6.4 1.15-1.57-8.72-5.95 1.06-2.92-12.69z"/><path fill="#1694DD" d="M20.46 40.54a2.53 2.53 0 0 0-.38 1.34 2.57 2.57 0 0 0 2.58 2.58h76.1a2.58 2.58 0 0 0 2.59-2.58 2.59 2.59 0 0 0-2.59-2.59H94.7a2.16 2.16 0 0 1-2.14-2.56 7.43 7.43 0 0 0-10.8-8.06A11.7 11.7 0 0 0 59.64 25a7.33 7.33 0 0 0-7.88-3 20.64 20.64 0 1 0-31.3 18.54z"/><path fill="#1188D8" d="M98.76 45h-76.1a3.08 3.08 0 0 1-3.08-3.08 2.89 2.89 0 0 1 .23-1.16 21.14 21.14 0 1 1 32.43-19.33 7.84 7.84 0 0 1 7.32 2.64 12.2 12.2 0 0 1 22.55 3.85 7.92 7.92 0 0 1 10.94 8.91c-.1.47.022.96.33 1.33.32.4.807.633 1.32.63h4.06a3.105 3.105 0 0 1 0 6.21zM31.16 2.74c-.56 0-1.12.02-1.68.06a20.15 20.15 0 0 0-8.72 37.31.52.52 0 0 1 .17.69 2 2 0 0 0-.31 1.08A2.08 2.08 0 0 0 22.66 44h76.1a2.09 2.09 0 1 0 0-4.17H94.7a2.72 2.72 0 0 1-2.1-1 2.62 2.62 0 0 1-.53-2.17 7.09 7.09 0 0 0 0-2.68 6.93 6.93 0 0 0-10.11-4.87.5.5 0 0 1-.73-.38 11.2 11.2 0 0 0-21.14-3.53.5.5 0 0 1-.86.07 6.84 6.84 0 0 0-7.33-2.75.49.49 0 0 1-.62-.46c-.435-10.796-9.315-19.323-20.12-19.32z"/><path fill="#1694DD" d="M237.26 155a2.58 2.58 0 0 0-.38 1.34 2.59 2.59 0 0 0 2.58 2.66h76.11a2.59 2.59 0 0 0 2.59-2.59 2.58 2.58 0 0 0-2.59-2.58h-4.07a2.16 2.16 0 0 1-2.14-2.57 7.42 7.42 0 0 0-10.84-8 11.7 11.7 0 0 0-22.08-3.69 7.39 7.39 0 0 0-7.86-2.95A20.64 20.64 0 1 0 237.26 155z"/><path fill="#1188D8" d="M315.57 159.47h-76.11a3.07 3.07 0 0 1-2.85-4.24 21.15 21.15 0 1 1 32.44-19.29 7.79 7.79 0 0 1 7.32 2.64 12.11 12.11 0 0 1 10.55-6.09 12.23 12.23 0 0 1 12 9.94 7.83 7.83 0 0 1 4.39-.58 7.94 7.94 0 0 1 6.6 6.43 7.82 7.82 0 0 1-.05 3.05 1.63 1.63 0 0 0 .33 1.34 1.7 1.7 0 0 0 1.32.62h4.07a3.09 3.09 0 1 1 0 6.18h-.01zm-67.61-42.23c-.56 0-1.12 0-1.68.07a20.15 20.15 0 0 0-8.76 37.31.56.56 0 0 1 .23.31.48.48 0 0 1-.06.37 2 2 0 0 0-.31 1.08c0 1.15.93 2.084 2.08 2.09h76.11a2.09 2.09 0 0 0 0-4.18h-4.07a2.67 2.67 0 0 1-2.09-1 2.56 2.56 0 0 1-.53-2.17 7.31 7.31 0 0 0 0-2.68 6.94 6.94 0 0 0-10.12-4.83.47.47 0 0 1-.46 0 .49.49 0 0 1-.27-.38 11.2 11.2 0 0 0-21.14-3.53.5.5 0 0 1-.86.06 6.87 6.87 0 0 0-7.33-2.74.46.46 0 0 1-.42-.09.51.51 0 0 1-.2-.37c-.44-10.795-9.316-19.323-20.12-19.33v.01z"/><path fill="#1694DD" d="M408.37 21.66c-.65-9.071-8.263-16.06-17.357-15.933-9.093.127-16.508 7.327-16.903 16.413a6 6 0 0 0-1.48-.19 6.17 6.17 0 0 0-5.05 2.63 9.73 9.73 0 0 0-18.36 3.07 6.17 6.17 0 0 0-9 6.7 1.8 1.8 0 0 1-1.78 2.13h-3.38a2.16 2.16 0 0 0-2.16 2.15 2.16 2.16 0 0 0 2.16 2.15h63.25a2.15 2.15 0 0 0 2.15-2.15 2.09 2.09 0 0 0-.32-1.11 17.15 17.15 0 0 0 8.23-15.86z"/><path fill="#1188D8" d="M398.31 41.28h-63.25a2.65 2.65 0 1 1 0-5.3h3.38a1.32 1.32 0 0 0 1-.49 1.27 1.27 0 0 0 .26-1 6.54 6.54 0 0 1 0-2.57 6.68 6.68 0 0 1 9.15-5 10.23 10.23 0 0 1 18.82-3.23 6.59 6.59 0 0 1 6-2.14 17.66 17.66 0 0 1 19.09-16.31 17.66 17.66 0 0 1 8 32.46 2.65 2.65 0 0 1-2.45 3.58zM335.06 37a1.65 1.65 0 0 0 0 3.3h63.25a1.65 1.65 0 0 0 1.65-1.65c0-.3-.082-.595-.24-.85a.51.51 0 0 1 .16-.69 16.65 16.65 0 0 0 8-15.4c-.639-8.8-8.029-15.577-16.852-15.452S375.01 13.365 374.62 22.18c0 .15-.07.29-.19.38a.55.55 0 0 1-.43.09 5.58 5.58 0 0 0-6 2.24.49.49 0 0 1-.45.21.48.48 0 0 1-.41-.27 9.23 9.23 0 0 0-17.38 2.89.5.5 0 0 1-.27.38.52.52 0 0 1-.47 0 5.68 5.68 0 0 0-8.31 4 5.76 5.76 0 0 0 0 2.19 2.25 2.25 0 0 1-.45 1.88 2.35 2.35 0 0 1-1.81.86l-3.39-.03z"/><path fill="#1694DD" d="M367.24 201.24a2.09 2.09 0 0 0-.32 1.11 2.15 2.15 0 0 0 2.15 2.15h63.26a2.15 2.15 0 1 0 0-4.3h-3.39a1.79 1.79 0 0 1-1.77-2.13 6.33 6.33 0 0 0 0-2.38 6.18 6.18 0 0 0-9.05-4.32 9.72 9.72 0 0 0-18.35-3.06 6.16 6.16 0 0 0-5.05-2.63 6.61 6.61 0 0 0-1.49.18 17.16 17.16 0 1 0-26 15.38h.01z"/><path fill="#1188D8" d="M432.33 205h-63.26a2.64 2.64 0 0 1-2.48-3.57 17.66 17.66 0 1 1 27.17-16.17 6.58 6.58 0 0 1 6 2.15 10.15 10.15 0 0 1 8.79-5 10.25 10.25 0 0 1 10 8.22 6.68 6.68 0 0 1 9.15 5 6.73 6.73 0 0 1 0 2.57 1.26 1.26 0 0 0 .25 1c.246.3.611.48 1 .49h3.39a2.65 2.65 0 1 1 0 5.3l-.01.01zm-56.19-35.1c-.46 0-.93 0-1.4.06a16.66 16.66 0 0 0-7.24 30.85.5.5 0 0 1 .17.69 1.63 1.63 0 0 0 1.4 2.5h63.26a1.65 1.65 0 1 0 0-3.3h-3.39a2.29 2.29 0 0 1-1.8-.86 2.23 2.23 0 0 1-.46-1.87 6 6 0 0 0 0-2.2 5.69 5.69 0 0 0-8.32-4 .49.49 0 0 1-.47 0 .54.54 0 0 1-.27-.38 9.22 9.22 0 0 0-17.4-2.91.53.53 0 0 1-.41.28.5.5 0 0 1-.45-.22 5.62 5.62 0 0 0-6-2.24.53.53 0 0 1-.42-.09.51.51 0 0 1-.2-.38c-.354-8.93-7.692-15.99-16.63-16l.03.07zM96.9 3.17l8.67 21 10.69-1.92 3.21 11.1 7.72-1.38 8.9 20.55-7-25.33-8.31 1.5-2.03-11.32-7.72 1.38-3.79-16.47zm70.51 96.86 8.67 21.01 10.69-1.92 3.22 11.1 7.71-1.38 8.9 20.55-7-25.33-8.31 1.5-2.03-11.32-7.72 1.38-3.79-16.47zm151.23-56.87-8.6-19.86-1.09-2.53-.91.16-7.49 1.34-3.51-12.09-11.64 2.09L280.36.05h9.54l1.45 6.32 5.38-.96 1.1-.19 1.93-.35.71 3.98.41 2.26 1.09 6.08 2.96-.53 1.09-.2 5-.89z"/><path fill="#FFF" d="M226.19 33.33a178.13 178.13 0 0 0-172.38 222.6h22.72l299.31.06h22.72A178.15 178.15 0 0 0 226.19 33.33z" opacity=".3"/><path fill="#FFCC05" d="M357.24 127.47c-1.34-2.91-9.06-12.69-9.14-12.79l.78-.62c.32.41 7.88 10 9.27 13l-.91.41zm15.67-16.09a176.71 176.71 0 0 0-110.43-73.84l.21-1a177.69 177.69 0 0 1 111 74.26l-.78.58zM69.76 127.43l-.88-.47c31.076-57.976 91.53-94.15 157.31-94.13 5.78 0 11.6.28 17.32.83l-.1 1a182.8 182.8 0 0 0-17.22-.82c-65.408-.021-125.523 35.945-156.43 93.59zM53.33 256.05a179.2 179.2 0 0 1 9.33-116.43l.92.4a178.27 178.27 0 0 0-9.29 115.78l-.96.25zm345.71.07-1-.25a178.12 178.12 0 0 0-15.95-129.41l.88-.48a179 179 0 0 1 16 130.14h.07z"/><path fill="#FFCC05" d="m104.18 114.79-.78-.62a156.59 156.59 0 0 1 228.36-18.5l-.67.74a155.6 155.6 0 0 0-226.88 18.38h-.03z"/><path fill="#1188D8" d="M83.34 148.52a.5.5 0 0 1-.45-.72c2.22-4.67 4.7-9.28 7.38-13.71a.5.5 0 0 1 .86.51c-2.66 4.41-5.13 9-7.34 13.63a.51.51 0 0 1-.45.29z"/><path fill="#FFCC05" d="M76.08 256.07a157.37 157.37 0 0 1 3.15-98.9l.94.34a156.38 156.38 0 0 0-3.13 98.28l-.96.28zm300.2.06-1-.28a156.15 156.15 0 0 0-8.75-111.67l.9-.44a157.16 157.16 0 0 1 8.81 112.39h.04zM148.9 98.17l-.56-.83a138.42 138.42 0 0 1 105.84-21.19l-.2 1a138.05 138.05 0 0 0-27.79-2.82 136.28 136.28 0 0 0-77.29 23.84zM95.57 256.09a138.24 138.24 0 0 1 23.12-131.35l.78.62a137.3 137.3 0 0 0-23 130.41l-.9.32zm261.19.06-.94-.32a136.8 136.8 0 0 0 7.38-44.48c0-1.38 0-2.75-.06-4.12h1c.04 1.373.06 2.753.06 4.14a137.65 137.65 0 0 1-7.44 44.78zm5.32-62.6c-.57-4.39-1.36-8.79-2.35-13.08l1-.22c1 4.32 1.79 8.75 2.36 13.18l-1.01.12zm-6.32-26.92a137.18 137.18 0 0 0-39.89-58.9l.65-.76a138.31 138.31 0 0 1 40.24 59.33l-1 .33z"/><path fill="#92D2F1" d="M428.6 256h-72.28l-260.28-.06H23.49c54.38-46.66 199-73.37 313.37-45.4 35.18 8.59 70.27 28.6 91.74 45.46z"/><path fill="#123456" d="M429.76 256h-2.42c-20.29-15.75-54.29-35.85-90.66-44.74-55.35-13.53-123.29-15-186.41-4-54.3 9.43-100.18 27.33-125.62 48.7h-2.33c25.47-22.29 71.3-40.38 127.71-50.17 63.31-11 131.48-9.52 187 4.05 37.5 9.16 72.5 30.16 92.73 46.16z"/><path fill="#123456" d="M437.49 255.88h-19.53a.75.75 0 1 1 0-1.5h19.53a.75.75 0 1 1 0 1.5zm-409.47 0H12.14a.75.75 0 1 1 0-1.5h15.88a.75.75 0 1 1 0 1.5z"/><path fill="#DAF0FA" d="M355.04 149.45c5.83-26.67 18.87-48.42 28.47-61.65 3.2-4.41 0-10.14-5.37-3.69-15.25 18.29-43.92 64.8-39.39 152.33l13.83-2.44c-1.33-10.55-5.29-49.15 2.46-84.55z"/><path fill="#92D2F1" d="M385.76 84.71c-9.69 12.78-24.45 35.88-30.76 64.74-7.75 35.4-3.79 74-2.46 84.58l9.64-1.67c-11.12-84.43 17.66-131.63 29.16-146.68 2.79-3.59-3.29-3.94-5.58-.97z"/><path fill="#123456" d="M338.76 237.19a.75.75 0 0 1-.75-.71c-4.41-85.2 22.33-131.65 38.66-151.76 3.31-4.08 7.42-4 9.83-2.3 2.41 1.7 3.74 5.85.73 10.49-13.23 20.38-34 65.58-24.26 139.35a.751.751 0 0 1-1.49.19c-9.77-74.24 11.15-119.81 24.49-140.36 2.5-3.84 1.62-7-.36-8.45-1.98-1.45-5.08-1.29-7.78 2-16.19 19.94-42.7 66-38.32 150.73a.76.76 0 0 1-.71.79l-.04.03z"/><path fill="#92D2F1" d="M378.76 83.51c-4.41-10.27-9.48-20.43-17-28.72s-17.7-14.61-28.85-15.4c-4.34-.3-9 .36-12.29 3.24-3.29 2.88-4.32 8.47-1.3 11.61 3.02 3.14 7.95 2.5 12.21 2.06 4.26-.44 9.59.11 11.28 4.05 1.48 3.41-.48 8.2 2.34 10.61s7.44-.54 11.32-.17a6.42 6.42 0 0 1 5.46 4.7c1.08 4.27-2.41 9.11-.3 13 2.6 4.77 10.51 2.87 14.37 6.7 1.86 1.85 5.17 9.69 7.13 3 1.16-3.98-2.87-11.19-4.37-14.68z"/><path fill="#123456" d="M381.16 101.56c-1.58 0-2.94-2-4.25-4a16 16 0 0 0-1.42-1.91c-1.61-1.6-4.14-2.13-6.58-2.65-3.12-.65-6.34-1.33-7.92-4.22-1.28-2.37-.72-5-.17-7.5.44-2 .85-3.9.4-5.66a5.65 5.65 0 0 0-4.8-4.13 14.36 14.36 0 0 0-4.41.58c-2.57.6-5.22 1.22-7.33-.59-1.92-1.58-1.92-4.03-1.92-6.4a11.76 11.76 0 0 0-.58-4.43c-1.75-4-7.94-3.87-10.52-3.6h-.27c-4.41.46-9.4 1-12.56-2.31a7.55 7.55 0 0 1-2-5.61 10.16 10.16 0 0 1 3.34-7.08c3.75-3.31 9.05-3.69 12.83-3.42 10.49.73 20.92 6.29 29.36 15.63 7.85 8.69 13.05 19.5 17.1 28.93.27.62.62 1.36 1 2.17 1.87 4 4.45 9.47 3.43 13-.37 1.27-1 3-2.42 3.21l-.31-.01zM355.76 70a6.62 6.62 0 0 1 .77 0 7.19 7.19 0 0 1 6.11 5.25 14 14 0 0 1-.39 6.35c-.52 2.36-1 4.58 0 6.46 1.24 2.28 4 2.86 6.91 3.48 2.66.56 5.4 1.13 7.32 3a16.42 16.42 0 0 1 1.61 2.14c.8 1.19 2.34 3.4 3.06 3.28.11 0 .65-.19 1.22-2.14.92-2.82-1.61-8.24-3.29-11.82-.39-.83-.74-1.58-1-2.22-4-9.31-9.13-20-16.84-28.51-8.17-9.06-18.24-14.44-28.34-15.15-3.5-.24-8.38.09-11.74 3a8.77 8.77 0 0 0-2.83 6 6 6 0 0 0 1.57 4.51c2.65 2.76 7.26 2.28 11.32 1.86h.28c6.15-.63 10.54 1 12 4.5a12.86 12.86 0 0 1 .71 5c0 2.13 0 4.15 1.43 5.34 1.43 1.19 3.61.82 6 .26a18.31 18.31 0 0 1 4.12-.59z"/><path fill="#92D2F1" d="M388.55 86.72c2.39-9.1 4.29-18.47 3.62-27.85-.67-9.38-4.17-18.87-11.16-25.16-2.72-2.45-6.17-4.44-9.83-4.22-3.66.22-7.25 3.37-6.88 7 .37 3.63 4 5.78 7 7.7s6.3 5 5.38 8.53c-.79 3-4.57 5.18-3.95 8.25.62 3.07 5.22 3.5 7.6 5.76a5.4 5.4 0 0 1 1.19 5.94c-1.5 3.39-6.32 4.8-6.93 8.46-.75 4.5 5.49 7.35 6.06 11.88.28 2.2-1.59 9.11 3.2 5.66 2.82-1.98 3.91-8.84 4.7-11.95z"/><path fill="#123456" d="M381.76 100.39a1.7 1.7 0 0 1-.86-.22c-1.33-.74-1.18-2.94-1-5.06.064-.665.08-1.333.05-2-.24-1.85-1.63-3.5-3-5.09-1.74-2.08-3.55-4.22-3.09-7 .38-2.28 2.13-3.73 3.82-5.13a10.51 10.51 0 0 0 3.16-3.51 4.62 4.62 0 0 0-1-5.09 12 12 0 0 0-3.19-1.88c-2-1-4.15-1.92-4.63-4.27-.42-2.12.85-3.78 2.08-5.39a10 10 0 0 0 1.89-3.2c.92-3.51-3.24-6.56-5.06-7.71l-.2-.12c-3-1.9-6.78-4.26-7.18-8.14a6.44 6.44 0 0 1 1.61-4.83 8.67 8.67 0 0 1 6-3c4.23-.26 8 2.26 10.37 4.41 6.6 6 10.66 15.06 11.41 25.66.71 9.85-1.45 19.73-3.65 28.1-.14.54-.29 1.21-.46 1.94-.83 3.65-2 8.64-4.48 10.45a4.87 4.87 0 0 1-2.59 1.08zm-10-70.17h-.51a7.21 7.21 0 0 0-4.91 2.48 4.92 4.92 0 0 0-1.27 3.71c.32 3.15 3.6 5.21 6.49 7l.19.12c4.46 2.8 6.54 6.21 5.72 9.36a11 11 0 0 1-2.15 3.73c-1.12 1.46-2.09 2.73-1.79 4.18.3 1.45 1.92 2.35 3.79 3.21a13.43 13.43 0 0 1 3.59 2.15 6.17 6.17 0 0 1 1.33 6.84 11.66 11.66 0 0 1-3.57 4c-1.55 1.28-3 2.5-3.3 4.23-.35 2.1 1.16 3.89 2.76 5.79 1.6 1.9 3 3.58 3.3 5.88a11.8 11.8 0 0 1 0 2.27c-.07 1.09-.23 3.37.27 3.65 0 0 .41.21 1.79-.78 2.06-1.48 3.17-6.34 3.9-9.56.17-.75.33-1.43.47-2 2.17-8.25 4.29-18 3.61-27.61-.73-10.21-4.61-19-10.92-24.65-2.12-1.83-5.29-4-8.79-4z"/><path fill="#92D2F1" d="m345.49 232.16 14.63-.71v1.42l-5.78 3.65-3.36.11-6.71-2.14z"/><path fill="#123456" d="M374.76 108.54a11.3 11.3 0 0 1-9.73-5.19.351.351 0 0 1 .62-.33c.14.25 3.52 6.21 12 4.53a.35.35 0 0 1 .14.68 14.92 14.92 0 0 1-3.03.31zm-5.82 15.17a13.24 13.24 0 0 1-8.08-3 16.72 16.72 0 0 1-3.27-3.45.35.35 0 1 1 .57-.4 16.32 16.32 0 0 0 3.13 3.3 11.63 11.63 0 0 0 10.24 2.48.34.34 0 0 1 .43.24.34.34 0 0 1-.24.43 9.93 9.93 0 0 1-2.78.4zm-6.9 18.58h-.38a17.24 17.24 0 0 1-11.7-5.08.34.34 0 0 1 0-.49.35.35 0 0 1 .5 0 16.56 16.56 0 0 0 11.22 4.87 8.08 8.08 0 0 0 3.81-.68.35.35 0 0 1 .47.15.36.36 0 0 1-.16.47 8.23 8.23 0 0 1-3.76.76zm-6.39 17.26a16.27 16.27 0 0 1-10.89-4.11.35.35 0 0 1 0-.5.36.36 0 0 1 .5 0 15.66 15.66 0 0 0 17.17 2.37.351.351 0 0 1 .31.63 15.79 15.79 0 0 1-7.09 1.61zm-2.53 19.99a30.13 30.13 0 0 1-5-.49c-2.7-.46-5.69-1.23-7.35-3.49a.35.35 0 0 1 .08-.49.36.36 0 0 1 .49.07c1.5 2.06 4.2 2.76 6.9 3.22 3.52.6 8 1 11.29-1.16a.36.36 0 0 1 .49.1.36.36 0 0 1-.1.49 12.38 12.38 0 0 1-6.8 1.75zm-.9 22.06a28.15 28.15 0 0 1-10.63-2.08 6.14 6.14 0 0 1-2.7-1.8.35.35 0 1 1 .56-.42 5.53 5.53 0 0 0 2.4 1.57 27.38 27.38 0 0 0 17.75 1 .35.35 0 0 1 .43.25.34.34 0 0 1-.24.43 28.15 28.15 0 0 1-7.57 1.05zm-5.85 20.26a25.7 25.7 0 0 1-8.3-1.36.35.35 0 1 1 .23-.66 25.77 25.77 0 0 0 22.24-2.84.34.34 0 0 1 .48.09.35.35 0 0 1-.09.49 26.35 26.35 0 0 1-14.56 4.28zm-11.54 19.07a.75.75 0 0 1-.5-1.31l.14-.12c2.89-2.56 6.17-5.46 10.28-5 1.212.16 2.41.418 3.58.77 2 .54 4.06 1.11 5.78.57a8.29 8.29 0 0 0 2.78-1.82 6.38 6.38 0 0 1 6.35-2.14c.36 0 .72.09 1.08.11a2.5 2.5 0 0 0 2.3-.82.75.75 0 0 1 1.3.74 3.82 3.82 0 0 1-3.69 1.58c-.4 0-.79-.07-1.19-.13a5 5 0 0 0-5.18 1.8 9.52 9.52 0 0 1-3.3 2.11c-2.14.67-4.42.05-6.62-.55a21.71 21.71 0 0 0-3.34-.73c-3.46-.34-6.34 2.2-9.14 4.67l-.14.12a.7.7 0 0 1-.49.15z"/><circle cx="366.21" cy="97.32" r="6.97" fill="#00A1E8"/><path fill="#123456" d="M366.2 105a7.72 7.72 0 1 1 7.73-7.72 7.73 7.73 0 0 1-7.73 7.72zm0-13.94a6.22 6.22 0 1 0 6.23 6.22 6.23 6.23 0 0 0-6.23-6.18v-.04z"/><circle cx="376.29" cy="104.31" r="6.97" fill="#00A1E8"/><path fill="#123456" d="M376.29 112a7.73 7.73 0 1 1 7.72-7.73 7.74 7.74 0 0 1-7.72 7.73zm0-14a6.23 6.23 0 1 0 6.22 6.22 6.24 6.24 0 0 0-6.22-6.13V98z"/><path fill="#92D2F1" d="M404.28 98.84c14.1 13.07 25 30.93 25 50.16 0 3.05-.31 6.22-1.85 8.87-1.54 2.65-4.57 4.61-7.58 4.07-3.45-.62-5.65-4.23-6.08-7.71-.43-3.48.45-7 .79-10.45a8.37 8.37 0 0 0-.31-3.89c-1.58-3.93-7.07-3.89-11.27-3.33-4.2.56-9.84 0-10.74-4.16-1.29-5.9 9-8.63 9.23-14.66.18-4.35-4.82-6.84-9-7.92s-9.3-2.65-10.22-6.9c-.61-2.8 1-5.7.52-8.53-.3-1.82-4.1-4.91-3.81-6.13.8-3.33 5.46-1.4 7.66-.7 6.7 2.14 12.56 6.55 17.66 11.28z"/><path fill="#123456" d="M420.86 162.77a6.83 6.83 0 0 1-1.11-.09c-4-.71-6.26-4.83-6.69-8.35a28.85 28.85 0 0 1 .4-7.61c.14-1 .29-2 .38-3a7.6 7.6 0 0 0-.26-3.53c-1.08-2.68-4.6-3.64-10.47-2.87-5 .66-10.6-.24-11.58-4.74-.76-3.52 2-6 4.63-8.32 2.2-2 4.48-4 4.59-6.54.19-4.57-6.43-6.63-8.47-7.15-3.38-.87-9.69-2.49-10.77-7.47a12 12 0 0 1 .23-4.7 11.47 11.47 0 0 0 .29-3.87 9.53 9.53 0 0 0-1.91-2.86c-1.19-1.44-2.12-2.58-1.89-3.57a3 3 0 0 1 1.47-2c1.8-1 4.62-.06 6.49.57l.66.22c5.82 1.86 11.52 5.49 17.93 11.44 22 20.39 25.29 40.52 25.28 50.71 0 2.74-.22 6.28-1.95 9.24a8.73 8.73 0 0 1-7.25 4.49zm-14.21-27.22c4.44 0 7.24 1.36 8.32 4.07a9 9 0 0 1 .37 4.23c-.1 1-.25 2.07-.4 3.08a27.62 27.62 0 0 0-.4 7.21c.37 3 2.24 6.48 5.47 7.06 2.9.51 5.55-1.56 6.8-3.71 1.55-2.66 1.75-5.94 1.75-8.49 0-9.94-3.21-29.6-24.8-49.61-6.24-5.79-11.76-9.32-17.36-11.11l-.69-.23c-1.52-.51-4.06-1.36-5.29-.68a1.52 1.52 0 0 0-.73 1.06 9.51 9.51 0 0 0 1.59 2.27c1 1.22 2.05 2.48 2.23 3.56a13 13 0 0 1-.29 4.4 10.49 10.49 0 0 0-.24 4.1c.82 3.77 5.42 5.25 9.68 6.34 6.17 1.58 9.75 4.82 9.59 8.67-.14 3.19-2.66 5.43-5.09 7.59-2.43 2.16-4.74 4.22-4.16 6.89.76 3.5 5.82 4.11 9.91 3.57a28.48 28.48 0 0 1 3.74-.27z"/><path fill="#92D2F1" d="M388.6 87.72c7.57-3 15.43-5.54 23.55-5.91 8.12-.37 16.61 1.69 22.72 7.06 2.38 2.09 4.44 4.85 4.61 8 .17 3.15-2.17 6.57-5.33 6.62-3.16.05-5.37-2.84-7.32-5.27-1.95-2.43-5-4.9-7.87-3.77-2.52 1-4 4.45-6.69 4.23-2.69-.22-3.52-4.13-5.7-6a4.68 4.68 0 0 0-5.22-.43c-2.77 1.63-3.49 5.91-6.57 6.8-3.79 1.1-6.86-4-10.81-4-1.91 0-7.66 2.29-5.18-2.17 1.44-2.55 7.22-4.14 9.81-5.16z"/><path fill="#123456" d="M434.08 104.25c-3.38 0-5.78-3-7.71-5.4l-.13-.15c-1.15-1.44-4.15-4.65-7-3.54a8.45 8.45 0 0 0-2.48 1.92c-1.27 1.24-2.59 2.5-4.5 2.35-2.11-.17-3.18-1.91-4.21-3.59a10.19 10.19 0 0 0-1.91-2.53 3.91 3.91 0 0 0-4.38-.31 9 9 0 0 0-2.66 3c-1 1.61-2.12 3.27-4.08 3.83-2.39.69-4.43-.65-6.41-2-1.56-1-3-2-4.62-2a10.61 10.61 0 0 0-1.68.24c-1.84.35-3.74.71-4.55-.42-.67-.93-.09-2.22.4-3.11 1.32-2.38 5.51-3.86 8.57-4.94.62-.22 1.17-.42 1.63-.6 7-2.73 15.24-5.57 23.78-6 9.21-.42 17.47 2.16 23.26 7.24 2.1 1.85 4.65 4.84 4.86 8.54a7.61 7.61 0 0 1-2 5.5 5.68 5.68 0 0 1-4.06 1.91l-.12.06zm-13.64-10.81c2.25 0 4.7 1.5 7 4.32l.13.15c1.82 2.27 3.88 4.84 6.54 4.84h.06a4.19 4.19 0 0 0 3-1.43 6.14 6.14 0 0 0 1.59-4.39c-.18-3.19-2.47-5.84-4.35-7.5-5.5-4.83-13.39-7.26-22.2-6.87-8.33.38-16.45 3.17-23.31 5.86-.46.18-1 .39-1.67.61-2.67 1-6.71 2.38-7.76 4.26-.65 1.17-.5 1.5-.5 1.5.26.36 2.3 0 3.07-.17a12.52 12.52 0 0 1 2-.27c2 0 3.77 1.16 5.44 2.27 1.67 1.11 3.44 2.27 5.16 1.77 1.42-.41 2.31-1.77 3.25-3.21a10.21 10.21 0 0 1 3.15-3.51 5.45 5.45 0 0 1 6.08.49 11.33 11.33 0 0 1 2.23 2.9c.91 1.48 1.7 2.77 3.06 2.88 1.36.11 2.2-.84 3.33-1.93a9.33 9.33 0 0 1 3-2.24 4.57 4.57 0 0 1 1.7-.33z"/><circle cx="377.59" cy="93.04" r="6.97" fill="#00A1E8"/><path fill="#123456" d="M377.59 100.77a7.73 7.73 0 1 1 0-15.46 7.73 7.73 0 0 1 0 15.46zm0-14a6.23 6.23 0 1 0 6.23 6.23 6.23 6.23 0 0 0-6.23-6.18v-.05z"/><path fill="#92D2F1" d="M73.96 78.68c4.06-10.41 8.79-20.74 16-29.28 7.21-8.54 17.19-15.2 28.31-16.4 4.32-.45 9 .05 12.39 2.82 3.39 2.77 4.6 8.32 1.7 11.56-2.9 3.24-7.87 2.77-12.15 2.47-4.28-.3-9.57.44-11.13 4.43-1.36 3.46.76 8.17-2 10.69-2.76 2.52-7.46-.3-11.32.21a6.41 6.41 0 0 0-5.3 4.87c-.93 4.31 2.71 9 .74 13-2.44 4.86-10.39 3.23-14.11 7.19-1.8 1.91-4.84 9.86-7 3.19-1.33-3.87 2.48-11.19 3.87-14.75z"/><path fill="#123456" d="M72.11 96.8h-.23c-1.41-.18-2.12-1.87-2.53-3.12-1.14-3.45 1.25-9 3-13.07.35-.82.68-1.57.92-2.2 3.73-9.55 8.57-20.53 16.12-29.48 8.12-9.63 18.35-15.53 28.81-16.62 3.77-.4 9.09-.2 12.94 3a10.17 10.17 0 0 1 3.58 7 7.56 7.56 0 0 1-1.8 5.67c-3.05 3.39-8.05 3-12.47 2.74h-.28c-2.59-.18-8.78-.15-10.39 4a11.79 11.79 0 0 0-.43 4.45c.06 2.37.12 4.83-1.73 6.52-2 1.88-4.72 1.34-7.31.83a14.24 14.24 0 0 0-4.44-.52 5.66 5.66 0 0 0-4.65 4.29c-.39 1.78.09 3.66.59 5.64.63 2.51 1.29 5.1.08 7.51-1.47 2.94-4.68 3.72-7.77 4.49-2.42.59-4.93 1.21-6.48 2.86a15.42 15.42 0 0 0-1.36 2c-1.26 1.93-2.52 4.01-4.17 4.01zM74.66 79c-.25.64-.58 1.4-.94 2.24-1.56 3.63-3.9 9.1-2.95 12 .63 1.92 1.18 2.08 1.29 2.1.77.1 2.19-2.17 3-3.39a16.13 16.13 0 0 1 1.53-2.19c1.86-2 4.58-2.64 7.22-3.29 2.89-.71 5.62-1.39 6.79-3.71 1-1.91.4-4.12-.2-6.46a13.93 13.93 0 0 1-.6-6.33 7.19 7.19 0 0 1 5.93-5.45 15.44 15.44 0 0 1 4.91.44c2.42.48 4.52.9 6-.47 1.34-1.23 1.29-3.24 1.24-5.37a12.88 12.88 0 0 1 .54-5c1.38-3.54 5.72-5.34 11.89-4.91h.27c4.08.29 8.7.6 11.26-2.24a6.1 6.1 0 0 0 1.41-4.56 8.78 8.78 0 0 0-3-5.92c-3.46-2.85-8.35-3-11.84-2.65-10.07 1.05-20 6.76-27.81 16.09C83.12 58.67 78.35 69.51 74.66 79z"/><path fill="#DAF0FA" d="M97.88 149.45C92.04 122.78 79 101 69.4 87.8c-3.2-4.41 0-10.14 5.37-3.69 15.25 18.29 43.92 64.8 39.39 152.33L100.33 234c1.33-10.55 5.29-49.15-2.45-84.55z"/><path fill="#92D2F1" d="M67.11 84.71c9.7 12.78 24.45 35.88 30.77 64.74 7.74 35.4 3.78 74 2.45 84.58l-9.63-1.67c11.12-84.43-17.66-131.63-29.17-146.68-2.77-3.59 3.33-3.94 5.58-.97z"/><path fill="#123456" d="M114.16 237.19a.76.76 0 0 1-.72-.79c4.32-84.69-22.16-130.79-38.35-150.73-2.7-3.32-5.92-3.38-7.78-2-1.86 1.38-2.85 4.61-.36 8.45 13.34 20.56 34.27 66.12 24.49 140.36a.75.75 0 0 1-.84.65.76.76 0 0 1-.65-.84c9.72-73.77-11-119-24.26-139.35-3-4.64-1.73-8.69.74-10.49 2.47-1.8 6.51-1.78 9.82 2.3 16.33 20.11 43.07 66.56 38.66 151.76a.75.75 0 0 1-.75.68z"/><path fill="#92D2F1" d="M74.07 73.7c-4.87-10.05-10.4-20-18.25-27.9-7.85-7.9-18.33-13.8-29.49-14.05-4.35-.11-9 .76-12.12 3.79-3.12 3.03-3.93 8.65-.78 11.64 3.15 2.99 8 2.14 12.29 1.51 4.29-.63 9.57-.33 11.44 3.52 1.63 3.35-.11 8.21 2.82 10.49 2.93 2.28 7.4-.88 11.29-.68a6.41 6.41 0 0 1 5.66 4.43c1.27 4.22-2 9.21.3 13 2.8 4.64 10.62 2.38 14.64 6 1.94 1.76 5.6 9.44 7.25 2.63.96-3.95-3.36-10.95-5.05-14.38z"/><path fill="#123456" d="M77.2 91.61c-1.54 0-3-1.9-4.33-3.75A16.29 16.29 0 0 0 71.36 86c-1.67-1.52-4.22-1.93-6.68-2.33-3.14-.52-6.4-1.05-8.1-3.86-1.39-2.31-.94-4.94-.51-7.48.34-2 .67-3.93.15-5.67a5.65 5.65 0 0 0-5-3.9 14.44 14.44 0 0 0-4.38.77c-2.54.72-5.16 1.46-7.35-.24-2-1.55-2.1-4-2.24-6.36a11.76 11.76 0 0 0-.78-4.4c-1.92-4-8.1-3.49-10.66-3.11h-.27c-4.38.65-9.34 1.39-12.65-1.75a7.51 7.51 0 0 1-2.23-5.5 10.09 10.09 0 0 1 3-7.22c3.59-3.48 8.87-4.08 12.66-4 10.5.26 21.16 5.33 30 14.27 8.27 8.37 13.95 18.93 18.44 28.15.29.61.67 1.32 1.09 2.12 2 3.9 4.87 9.25 4 12.78-.31 1.28-.89 3-2.27 3.3a1.64 1.64 0 0 1-.38.04zM50.92 61.26h.39a7.2 7.2 0 0 1 6.34 5 13.77 13.77 0 0 1-.1 6.35c-.41 2.39-.79 4.6.32 6.39 1.34 2.22 4.11 2.67 7 3.16 2.68.43 5.45.89 7.45 2.7A16.21 16.21 0 0 1 74.07 87c.86 1.15 2.44 3.29 3.21 3.14.1 0 .64-.22 1.11-2.19.73-3-2-8.24-3.88-11.72-.43-.81-.81-1.55-1.11-2.17-4.42-9.11-10-19.53-18.11-27.69-8.53-8.71-18.87-13.62-28.98-13.87-3.55-.09-8.36.5-11.55 3.58a8.71 8.71 0 0 0-2.55 6.13 6 6 0 0 0 1.77 4.43c2.77 2.63 7.35 2 11.39 1.34h.27c6.11-.91 10.57.53 12.23 4a12.86 12.86 0 0 1 .93 5c.12 2.13.23 4.14 1.67 5.26s3.64.66 6 0a16.81 16.81 0 0 1 4.45-.98z"/><path fill="#92D2F1" d="m107.42 232.16-14.62-.71v1.42l5.78 3.65 3.36.11 6.7-2.14z"/><path fill="#123456" d="M78.15 108.54a14.75 14.75 0 0 1-3-.31.35.35 0 0 1-.133-.632.34.34 0 0 1 .263-.048c8.47 1.69 11.94-4.47 12-4.53a.36.36 0 0 1 .48-.14.35.35 0 0 1 .14.47 11.28 11.28 0 0 1-9.75 5.19zm5.82 15.17a10 10 0 0 1-2.78-.39.34.34 0 0 1-.24-.43.36.36 0 0 1 .43-.24 11.66 11.66 0 0 0 10.24-2.48 16.05 16.05 0 0 0 3.13-3.3.35.35 0 0 1 .49-.09.34.34 0 0 1 .08.49 16.72 16.72 0 0 1-3.27 3.45 13.21 13.21 0 0 1-8.08 2.99zm6.9 18.58a8.26 8.26 0 0 1-3.76-.76.35.35 0 1 1 .32-.62 8 8 0 0 0 3.81.68 16.6 16.6 0 0 0 11.22-4.87.34.34 0 0 1 .49 0 .35.35 0 0 1 0 .49 17.26 17.26 0 0 1-11.7 5.08h-.38zm6.39 17.26a15.79 15.79 0 0 1-7.06-1.63.35.35 0 0 1-.15-.47.36.36 0 0 1 .47-.16 15.67 15.67 0 0 0 17.17-2.37.35.35 0 0 1 .49 0 .36.36 0 0 1 0 .5 16.32 16.32 0 0 1-10.92 4.13zm2.5 19.99a12.35 12.35 0 0 1-6.81-1.75.36.36 0 0 1-.1-.49.34.34 0 0 1 .48-.1c3.31 2.16 7.78 1.76 11.3 1.16 2.69-.46 5.39-1.16 6.9-3.22a.35.35 0 0 1 .56.42c-1.66 2.26-4.64 3-7.34 3.49a30.25 30.25 0 0 1-4.99.49zm.94 22.06a28.23 28.23 0 0 1-7.58-1 .353.353 0 1 1 .19-.68 27.37 27.37 0 0 0 17.75-1 5.56 5.56 0 0 0 2.41-1.57.34.34 0 0 1 .49-.07.36.36 0 0 1 .07.49 6.17 6.17 0 0 1-2.71 1.8 28.1 28.1 0 0 1-10.62 2.03zm5.85 20.26a26.32 26.32 0 0 1-14.56-4.33.35.35 0 1 1 .39-.58 25.74 25.74 0 0 0 22.23 2.89.35.35 0 0 1 .45.21.36.36 0 0 1-.22.45 25.64 25.64 0 0 1-8.29 1.36zm11.53 19.07a.72.72 0 0 1-.49-.19l-.14-.12c-2.79-2.47-5.69-5-9.14-4.67a21.6 21.6 0 0 0-3.33.73c-2.21.6-4.49 1.22-6.63.55a9.61 9.61 0 0 1-3.3-2.11 7.06 7.06 0 0 0-3.14-1.88 7.09 7.09 0 0 0-2 .08c-.39.063-.785.106-1.18.13a3.85 3.85 0 0 1-3.7-1.58.75.75 0 0 1 1.3-.74 2.51 2.51 0 0 0 2.31.82c.35 0 .71-.07 1.07-.11a8.21 8.21 0 0 1 2.48-.08 8.19 8.19 0 0 1 3.83 2.24 8.29 8.29 0 0 0 2.74 1.8c1.72.53 3.79 0 5.78-.57a22.89 22.89 0 0 1 3.58-.77c4.11-.42 7.39 2.48 10.29 5l.13.12a.76.76 0 0 1 .07 1.06.79.79 0 0 1-.53.29z"/><circle cx="86.71" cy="97.32" r="6.97" fill="#00A1E8"/><path fill="#123456" d="M86.76 105a7.72 7.72 0 1 1 0-15.44 7.72 7.72 0 0 1 0 15.44zm0-13.9a6.22 6.22 0 1 0 6.22 6.22 6.23 6.23 0 0 0-6.22-6.22z"/><circle cx="76.63" cy="104.31" r="6.97" fill="#00A1E8"/><path fill="#123456" d="M76.63 112a7.73 7.73 0 1 1 7.72-7.73 7.74 7.74 0 0 1-7.72 7.73zm0-14a6.23 6.23 0 1 0 6.22 6.22 6.23 6.23 0 0 0-6.22-6.13V98z"/><path fill="#92D2F1" d="M48.64 98.84c-14.1 13.07-25.05 30.93-25 50.16 0 3.05.31 6.22 1.85 8.87 1.54 2.65 4.58 4.61 7.58 4.07 3.46-.62 5.66-4.23 6.08-7.71.42-3.48-.45-7-.79-10.45a8.37 8.37 0 0 1 .32-3.89c1.58-3.93 7.06-3.89 11.27-3.33s9.84 0 10.74-4.16c1.28-5.9-9-8.63-9.23-14.66-.19-4.35 4.81-6.84 9-7.92s9.3-2.65 10.22-6.9c.61-2.8-1-5.7-.52-8.53.29-1.82 4.1-4.91 3.8-6.13-.8-3.33-5.46-1.4-7.66-.7-6.71 2.14-12.54 6.55-17.66 11.28z"/><path fill="#123456" d="M32.05 162.77a8.74 8.74 0 0 1-7.29-4.53c-1.72-3-1.95-6.5-1.95-9.24 0-10.19 3.28-30.32 25.28-50.71 6.41-6 12.11-9.58 17.93-11.44l.66-.22c1.87-.63 4.69-1.57 6.5-.57a3 3 0 0 1 1.46 2c.24 1-.7 2.13-1.89 3.57a9.27 9.27 0 0 0-1.9 2.86 11.46 11.46 0 0 0 .28 3.87 11.61 11.61 0 0 1 .23 4.7c-1.08 5-7.38 6.6-10.77 7.47-2 .52-8.66 2.58-8.46 7.15.1 2.56 2.38 4.58 4.58 6.54 2.65 2.36 5.4 4.8 4.63 8.32-1 4.5-6.62 5.4-11.57 4.74-5.88-.77-9.4.19-10.48 2.87a7.6 7.6 0 0 0-.26 3.53c.1 1 .24 2 .38 3a28.86 28.86 0 0 1 .41 7.61c-.43 3.52-2.71 7.64-6.69 8.35a7 7 0 0 1-1.08.13zm17.1-63.38c-21.59 20-24.8 39.67-24.8 49.61 0 2.55.2 5.83 1.75 8.49 1.25 2.15 3.91 4.22 6.8 3.71 3.23-.58 5.1-4.06 5.47-7.06a27.6 27.6 0 0 0-.4-7.21c-.14-1-.29-2.05-.39-3.08a8.85 8.85 0 0 1 .36-4.23c1.37-3.4 5.42-4.68 12.07-3.8 4.09.54 9.14-.07 9.9-3.57.58-2.67-1.72-4.72-4.15-6.89-2.43-2.17-5-4.4-5.09-7.59-.17-3.85 3.42-7.09 9.59-8.67 4.25-1.09 8.86-2.57 9.68-6.34.19-1.37.11-2.762-.24-4.1a12.72 12.72 0 0 1-.29-4.4c.18-1.08 1.22-2.34 2.22-3.56a9 9 0 0 0 1.59-2.3 1.47 1.47 0 0 0-.73-1c-1.23-.68-3.77.17-5.29.68l-.68.23c-5.6 1.79-11.12 5.32-17.37 11.11v-.03z"/><path fill="#92D2F1" d="M63.06 83c-8.48-3.29-17.3-6.18-26.37-6.59-9.07-.41-18.61 1.89-25.45 7.9-2.67 2.34-5 5.44-5.17 9-.17 3.56 2.43 7.36 6 7.41 3.57.05 6-3.18 8.2-5.9 2.2-2.72 5.49-5.51 8.79-4.24 2.82 1.1 4.47 5 7.49 4.73 3.17-.26 4-4.63 6.39-6.66a5.21 5.21 0 0 1 5.82-.48c3.1 1.83 3.91 6.62 7.36 7.62 4.25 1.22 7.69-4.45 12.11-4.49 2.14 0 8.58 2.55 5.8-2.44C72.44 86 65.96 84.17 63.06 83z"/><path fill="#123456" d="M12.13 101.45h-.09a6.3 6.3 0 0 1-4.49-2.11 8.43 8.43 0 0 1-2.23-6.09c.23-4.12 3.08-7.44 5.42-9.5 6.47-5.68 15.69-8.56 26-8.09 9.56.43 18.82 3.61 26.62 6.67.51.2 1.13.42 1.82.66 3.41 1.21 8.08 2.87 9.55 5.5.54 1 1.18 2.39.46 3.39-.88 1.21-3 .82-5 .44a13.57 13.57 0 0 0-1.89-.27c-1.81 0-3.47 1.11-5.23 2.27-2.19 1.45-4.46 3-7.1 2.19-2.21-.63-3.4-2.51-4.56-4.26a10.16 10.16 0 0 0-3-3.43 4.47 4.47 0 0 0-5 .4 11.5 11.5 0 0 0-2.16 2.85c-1.15 1.87-2.33 3.79-4.65 4-2.1.17-3.56-1.24-5-2.61a9.31 9.31 0 0 0-2.84-2.18c-3.25-1.28-6.64 2.36-8 4l-.14.17c-2.08 2.67-4.75 6-8.49 6zm22.45-24.34c-9.06 0-17.11 2.72-22.85 7.77-2.13 1.87-4.71 4.85-4.91 8.45a7 7 0 0 0 1.83 5 4.78 4.78 0 0 0 3.41 1.67c3 0 5.39-2.87 7.46-5.45l.14-.17c3.2-4 6.72-5.6 9.67-4.45a10.78 10.78 0 0 1 3.36 2.49c1.27 1.24 2.38 2.31 3.8 2.19 1.42-.12 2.45-1.58 3.49-3.27a12.64 12.64 0 0 1 2.48-3.22 6 6 0 0 1 6.71-.54 11.28 11.28 0 0 1 3.49 3.9c1.1 1.58 2.1 3.12 3.69 3.58 2 .58 3.86-.67 5.86-2 2-1.33 3.79-2.5 6-2.52.737.03 1.47.128 2.19.29 1 .18 3.2.6 3.52.16 0 0 .24-.36-.55-1.78-1.19-2.14-5.74-3.75-8.74-4.81-.71-.25-1.35-.48-1.87-.68-7.68-3-16.8-6.15-26.13-6.57-.67-.02-1.37-.04-2.05-.04z"/><path fill="#92D2F1" d="M120.67 60.85c8.46-1 17.36-.44 25 3.41 7.64 3.85 13.61 11.55 13.68 20.06 0 5.05-2.39 10.67-9.13 10.45a10.18 10.18 0 0 1-3.79-.91c-5-2.25-7.76-6.86-10.93-11-2.55-3.32-5.66-6.55-9.71-7.59a2.7 2.7 0 0 0-3.64 1.73c-2.34 4.56-.76 10.36-3.73 14.81a6.06 6.06 0 0 1-4.39 2.8c-4.6.41-7-5.17-10.24-7.94a3.08 3.08 0 0 0-4.93 1.53c-1.14 3.76-3 7.37-6.72 8.17-4.38 1-14.71-5.22-17.43-8.6-4-5 5.6-10.34 9.33-12.95a79.72 79.72 0 0 1 36.63-13.97z"/><path fill="#123456" d="M91.13 97.19c-5.2 0-14.46-5.82-17-9a4.65 4.65 0 0 1-1.09-3.73c.58-3.69 5.64-7 9-9.25.59-.39 1.13-.74 1.58-1.06a80.31 80.31 0 0 1 37-14.06c10-1.13 18.59 0 25.37 3.48 8.5 4.3 14 12.44 14.09 20.72a12.18 12.18 0 0 1-3.17 8.82 8.86 8.86 0 0 1-6.73 2.39 11.12 11.12 0 0 1-4.08-1c-4.36-2-7.09-5.67-9.74-9.25l-1.47-2c-2.2-2.86-5.25-6.28-9.31-7.32a2.82 2.82 0 0 0-1.44-.08 2.57 2.57 0 0 0-1.29 1.38 18.28 18.28 0 0 0-1.49 6.62c-.29 2.81-.59 5.73-2.29 8.27a6.75 6.75 0 0 1-4.94 3.13c-3.58.32-5.84-2.44-8-5.1a24.17 24.17 0 0 0-2.77-3 2.22 2.22 0 0 0-2.1-.44 2.4 2.4 0 0 0-1.62 1.61c-1.55 5.12-3.93 8-7.28 8.7a5.41 5.41 0 0 1-1.23.17zm29.63-35.59a78.75 78.75 0 0 0-36.29 13.8c-.46.32-1 .69-1.61 1.08-3.13 2.07-7.86 5.19-8.34 8.23a3.17 3.17 0 0 0 .78 2.56c2.78 3.46 12.78 9.2 16.68 8.34 2.78-.61 4.78-3.11 6.17-7.61a3.87 3.87 0 0 1 2.61-2.67 3.74 3.74 0 0 1 3.49.74 24.65 24.65 0 0 1 3 3.21c2 2.47 4 4.79 6.73 4.55a5.21 5.21 0 0 0 3.78-2.46c1.5-2.24 1.76-4.84 2-7.6a19.73 19.73 0 0 1 1.65-7.14 3.88 3.88 0 0 1 2.16-2.12 4.07 4.07 0 0 1 2.28 0c4.51 1.16 7.78 4.81 10.12 7.87.51.65 1 1.32 1.5 2 2.65 3.58 5.15 7 9.15 8.77a9.35 9.35 0 0 0 3.51.84 7.42 7.42 0 0 0 5.63-2 10.66 10.66 0 0 0 2.72-7.73c-.06-7.61-5.39-15.4-13.27-19.39-6.45-3.24-14.69-4.36-24.45-3.27z"/><circle cx="75.32" cy="93.04" r="6.97" fill="#00A1E8"/><path fill="#123456" d="M75.32 100.77a7.73 7.73 0 1 1 0-15.46 7.73 7.73 0 0 1 0 15.46zm0-14A6.23 6.23 0 1 0 81.55 93a6.23 6.23 0 0 0-6.23-6.18v-.05z"/><path fill="#DAF0FA" d="M247.66 256H240l-1.65-5.08a3.3 3.3 0 0 1 2.11-4.15l.67-.21a3.29 3.29 0 0 1 4.15 2.11l2.38 7.33z"/><path fill="#123456" d="M245.99 248.4a4.06 4.06 0 0 0-5.09-2.6l-.67.22a4 4 0 0 0-2.59 5.09l1.57 4.85h1.55l-1.72-5.31a2.55 2.55 0 0 1 1.63-3.2l.67-.22a2.55 2.55 0 0 1 3.2 1.63l2.31 7.1h1.58l-2.44-7.56z"/><path fill="#F9E3CD" d="M220.05 144.61s.89-5 1.39-5.63c.75-1 3.39.74 3.39.74l-1.36 4.52"/><path fill="#123456" d="M220.05 145.36h-.13a.76.76 0 0 1-.61-.87c.28-1.55 1-5.22 1.53-5.95 1.09-1.45 3.65.07 4.41.57a.74.74 0 0 1 .3.84l-1.36 4.52a.76.76 0 0 1-.94.5.75.75 0 0 1-.5-.94l1.2-4a3.43 3.43 0 0 0-1.92-.62 34.24 34.24 0 0 0-1.24 5.3.76.76 0 0 1-.74.65z"/><rect width="54.41" height="8.03" x="191.918" y="190.1" fill="#DAF0FA" rx="3.63" transform="rotate(6.37 219.123 194.115)"/><path fill="#123456" d="M242.5 201.52a3.91 3.91 0 0 1-.49 0l-46.86-5.23a4.39 4.39 0 0 1-3.87-4.84l.09-.77a4.36 4.36 0 0 1 4.84-3.87l46.85 5.19a4.39 4.39 0 0 1 3.87 4.84l-.09.77a4.39 4.39 0 0 1-4.34 3.91zm-.33-1.52a2.88 2.88 0 0 0 3.18-2.54l.09-.77a2.85 2.85 0 0 0-.61-2.12 2.89 2.89 0 0 0-1.93-1.06l-46.86-5.24a2.89 2.89 0 0 0-2.12.62 2.83 2.83 0 0 0-1.06 1.93l-.09.76a2.89 2.89 0 0 0 2.54 3.19l46.86 5.23z"/><rect width="61.15" height="89.57" x="266.55" y="138.74" fill="#92D2F1" rx="5.25"/><path fill="#123456" d="M322.46 229.07h-50.7a6 6 0 0 1-6-6V144a6 6 0 0 1 6-6h50.7a6 6 0 0 1 6 6v79.08a6 6 0 0 1-6 5.99zm-50.7-89.58a4.51 4.51 0 0 0-4.5 4.5v79.08a4.51 4.51 0 0 0 4.5 4.5h50.7a4.5 4.5 0 0 0 4.49-4.5V144a4.5 4.5 0 0 0-4.49-4.5l-50.7-.01z"/><path fill="#ECECEC" d="M309.98 233.83a5 5 0 0 0 1.21-3.24 4.83 4.83 0 0 0-.56-2.27h-8.79a4.83 4.83 0 0 0-.56 2.27 5 5 0 0 0 1.21 3.24h7.49z"/><path fill="#123455" d="M309.98 234.83h-7.49a1 1 0 0 1-.75-.35 5.92 5.92 0 0 1-.79-6.63 1 1 0 0 1 .89-.53h8.79a1 1 0 0 1 .89.54 5.91 5.91 0 0 1-.79 6.62 1 1 0 0 1-.75.35zm-7-2h6.51a4 4 0 0 0 .7-2.24 3.94 3.94 0 0 0-.22-1.27h-7.48a4.17 4.17 0 0 0-.21 1.27 4 4 0 0 0 .7 2.24z"/><path fill="#ECECEC" d="M273.22 233.83a4.95 4.95 0 0 0 .66-5.51h-8.8a4.95 4.95 0 0 0 .66 5.51h7.48z"/><path fill="#123455" d="M273.22 234.83h-7.46a1 1 0 0 1-.75-.35 5.94 5.94 0 0 1-.8-6.62 1 1 0 0 1 .89-.54h8.8a1 1 0 0 1 .89.53 6 6 0 0 1 .66 2.74 5.92 5.92 0 0 1-1.45 3.89 1 1 0 0 1-.78.35zm-7-2h6.54a3.94 3.94 0 0 0 .49-3.51h-7.49a4 4 0 0 0 .47 3.51h-.01z"/><path fill="#DAF0FA" d="M302.6 129.77c-.42.82-1.65 1-2.78.55a23.24 23.24 0 0 0-17.39 0c-1.14.46-2.36.27-2.79-.55-.31-.62-.62-1.23-.92-1.85-.43-.81.33-2.07 1.75-2.64a28.34 28.34 0 0 1 21.3 0c1.42.57 2.18 1.83 1.76 2.64l-.93 1.85z"/><path fill="#123456" d="M301.03 131.32a4.08 4.08 0 0 1-1.49-.3 22.38 22.38 0 0 0-16.78-.02c-1.57.63-3.14.25-3.74-.9l-.93-1.87a1.94 1.94 0 0 1 0-1.59 3.83 3.83 0 0 1 2.2-2.08 29 29 0 0 1 21.86 0 3.77 3.77 0 0 1 2.2 2.08 2 2 0 0 1-.06 1.61l-.91 1.84a2.45 2.45 0 0 1-2.35 1.23zm-9.91-7.32a27.66 27.66 0 0 0-10.36 2 2.36 2.36 0 0 0-1.35 1.2.55.55 0 0 0 0 .4l.93 1.87c.22.41 1 .5 1.84.19a23.83 23.83 0 0 1 17.95 0c.77.31 1.61.22 1.84-.2l.92-1.85a.55.55 0 0 0 0-.4 2.4 2.4 0 0 0-1.36-1.21 27.62 27.62 0 0 0-10.41-2z"/><path fill="#ECECEC" d="M283.26 137.93v-7.36"/><path fill="#123455" d="M283.25 138.93a1 1 0 0 1-1-1v-7.36a1 1 0 1 1 2 0v7.36a1 1 0 0 1-1 1z"/><path fill="#ECECEC" d="M298.99 137.93v-7.36"/><path fill="#123455" d="M298.99 138.93a1 1 0 0 1-1-1v-7.36a1 1 0 1 1 2 0v7.36a1 1 0 0 1-1 1z"/><rect width="61.15" height="89.57" x="257.28" y="138.74" fill="#92D2F1" rx="5.25"/><path fill="#123456" d="M313.19 229.07h-50.66a6 6 0 0 1-6-6V144a6 6 0 0 1 6-6h50.66a6 6 0 0 1 6 6v79.08a6 6 0 0 1-6 5.99zm-50.66-89.58a4.51 4.51 0 0 0-4.5 4.5v79.08a4.51 4.51 0 0 0 4.5 4.5h50.66a4.5 4.5 0 0 0 4.49-4.5V144a4.5 4.5 0 0 0-4.49-4.5l-50.66-.01z"/><path fill="#1B9FE1" d="M280.99 172.21h13.55v56.11h-13.55z"/><path fill="#DAF0FA" d="M257.5 157.65h60.93v14.47H257.5z"/><path fill="#123456" d="M318.43 172.86H257.5a.75.75 0 0 1-.75-.75v-14.46a.75.75 0 0 1 .75-.75h60.93a.74.74 0 0 1 .75.75v14.46a.74.74 0 0 1-.75.75zm-60.18-1.5h59.43v-13h-59.43v13z"/><path fill="#ECECEC" d="M287.79 147.34v-8.6"/><path fill="#123455" d="M287.76 148.09a.76.76 0 0 1-.75-.75v-8.6a.75.75 0 1 1 1.5 0v8.6a.75.75 0 0 1-.75.75z"/><path fill="#DAF0FA" d="M320.76 172.11h-2.33v26.61h2.33a3 3 0 0 0 3.23-2.68v-21.25a3 3 0 0 0-3.23-2.68z"/><path fill="#123456" d="M320.76 199.47h-2.33a.76.76 0 0 1-.75-.75v-26.61a.76.76 0 0 1 .75-.75h2.33a3.74 3.74 0 0 1 4 3.43V196a3.74 3.74 0 0 1-4 3.47zm-1.58-1.5h1.58a2.26 2.26 0 0 0 2.48-1.93v-21.25a2.26 2.26 0 0 0-2.48-1.93h-1.58v25.11z"/><path fill="#1B9FE1" d="M292.47 152.18c-.19-1.84-2.83-4.84-4.69-4.84-1.86 0-4.61 3-4.76 4.84v10.13a3.09 3.09 0 0 0 3.09 3.09h3.3a3.09 3.09 0 0 0 3.1-3.09v-10.13h-.04z"/><path fill="#123455" d="M261.93 190.74a.5.5 0 0 1-.5-.5v-6.55a.5.5 0 0 1 1 0v6.55a.5.5 0 0 1-.5.5zm12.42 33.45h-7.17a5.75 5.75 0 0 1-5.75-5.74v-24.78a.51.51 0 0 1 .5-.5.5.5 0 0 1 .5.5v24.78a4.75 4.75 0 0 0 4.75 4.74h7.17a.51.51 0 0 1 .5.5.5.5 0 0 1-.5.5z"/><path fill="#DAF0FA" d="M338.37 256h-6.7L324 232.38a2.87 2.87 0 0 1 1.85-3.63l.58-.19a2.89 2.89 0 0 1 3.63 1.85l8.31 25.59z"/><path fill="#123456" d="M330.76 230.16a3.63 3.63 0 0 0-4.57-2.33l-.59.19a3.63 3.63 0 0 0-2.33 4.57l7.6 23.39h1.57l-7.68-23.85a2.08 2.08 0 0 1 .13-1.62 2.1 2.1 0 0 1 1.24-1.06l.58-.19a2.17 2.17 0 0 1 .66-.11 2.13 2.13 0 0 1 2 1.48l8.21 25.37h1.57l-8.39-25.84z"/><path fill="#DAF0FA" d="m150.39 165.53-26.58 90.41h-7l27.1-92.2a3.37 3.37 0 1 1 6.49 1.8l-.01-.01z"/><path fill="#123456" d="M150.76 162.6a4.06 4.06 0 0 0-2.48-1.94 4.12 4.12 0 0 0-5.06 2.85l-27.17 92.42h1.57l27-92a2.63 2.63 0 0 1 3.22-1.82 2.63 2.63 0 0 1 1.83 3.22l-26.64 90.62h1.57l26.51-90.21a4.07 4.07 0 0 0-.35-3.14z"/><path fill="#DAF0FA" d="M192.89 181.46a3.36 3.36 0 0 1 2.35 4.14l-16.48 62.58a3.36 3.36 0 0 1-4.14 2.34 3.35 3.35 0 0 1-2.35-4.14l16.49-62.58a3.36 3.36 0 0 1 4.13-2.34z"/><path fill="#123456" d="M175.49 251.39a4.08 4.08 0 0 1-1.09-.14 4.15 4.15 0 0 1-2.49-1.94 4.08 4.08 0 0 1-.38-3.13l16.49-62.57a4.14 4.14 0 0 1 5.07-2.88 4.13 4.13 0 0 1 2.87 5.07l-16.5 62.57a4.13 4.13 0 0 1-3.97 3.02zm16.5-69.31a2.62 2.62 0 0 0-2.52 1.92l-16.5 62.57a2.62 2.62 0 1 0 5 1.41l16.5-62.57a2.63 2.63 0 0 0-.24-2 2.6 2.6 0 0 0-1.58-1.23 2.82 2.82 0 0 0-.66-.1z"/><path fill="#00A1E8" d="m205.53 211.09-51.31 15.35-33.01-81.46 52.25-14.39z"/><path fill="#123456" d="m153.76 227.36-33.59-82.88 53.72-14.79 32.62 81.89-52.75 15.78zm-31.56-81.88 32.44 80.05 49.87-14.92-31.52-79.12-50.79 13.99z"/><path fill="#00A1E8" d="m339.13 233.16-60.15 16.74-124.28-13.69 60.15-16.74z"/><path fill="#123456" d="M279.04 250.67h-.14l-128.14-14.14 64-17.82h.14l128.15 14.12-64.01 17.84zm-120.39-14.78 120.27 13.25 56.27-15.66-120.28-13.25-56.26 15.66z"/><path fill="#123456" d="M217.61 240.15s3.74 2.46 6.38-1.1l-6.39-1.23.01 2.33z"/><path fill="#123456" d="M220.41 241.73a6 6 0 0 1-3.21-1 .73.73 0 0 1-.34-.62v-2.33a.76.76 0 0 1 .9-.74l6.38 1.24a.74.74 0 0 1 .46 1.18 5.06 5.06 0 0 1-4.19 2.27zm-2.05-2a3.81 3.81 0 0 0 4.13-.18l-4.13-.8v.98z"/><path fill="#DAF0FA" d="M157.2 240.92a3.35 3.35 0 0 1-4.38-1.86l-37.9-94.78a3.37 3.37 0 0 1 1.84-4.38 3.35 3.35 0 0 1 4.38 1.86l37.9 94.78a3.36 3.36 0 0 1-1.84 4.38z"/><path fill="#123456" d="M155.94 241.92a4.13 4.13 0 0 1-3.82-2.58l-37.9-94.78a4.14 4.14 0 0 1 2.28-5.36 4.12 4.12 0 0 1 5.36 2.28l37.9 94.78a4.13 4.13 0 0 1-2.27 5.36 4.19 4.19 0 0 1-1.55.3zm-37.9-101.52a2.8 2.8 0 0 0-1 .19 2.63 2.63 0 0 0-1.45 3.41l37.9 94.78a2.57 2.57 0 0 0 1.41 1.43 2.62 2.62 0 0 0 2 0 2.63 2.63 0 0 0 1.45-3.41L120.47 142a2.64 2.64 0 0 0-2.43-1.64v.04z"/><path fill="#DAF0FA" d="M255.53 250.05a3.35 3.35 0 0 1-3.7 3l-136.62-16.8a3.37 3.37 0 1 1 .71-6.7l136.62 16.8a3.35 3.35 0 0 1 2.99 3.7z"/><path fill="#123456" d="M252.19 253.81h-.44L115.12 237a4.12 4.12 0 0 1 .89-8.19l136.63 16.8a4.12 4.12 0 0 1 3.64 4.53 4.11 4.11 0 0 1-4.09 3.68v-.01zm-136.63-23.53a2.62 2.62 0 0 0-2.59 2.34 2.62 2.62 0 0 0 2.32 2.88l136.63 16.8a2.62 2.62 0 0 0 2.84-2.3 2.63 2.63 0 0 0-2.32-2.88l-136.63-16.8-.25-.04z"/><path fill="#DAF0FA" d="M342.76 230.13a3.37 3.37 0 0 1-3.71 3l-130.8-16.74a3.37 3.37 0 0 1-3-3.7 3.38 3.38 0 0 1 3.71-3l130.8 16.74a3.37 3.37 0 0 1 3 3.7z"/><path fill="#123456" d="M339.43 233.89h-.44l-130.84-16.76a4.115 4.115 0 1 1 .9-8.18l130.83 16.73a4.12 4.12 0 0 1 2.13 7.3 4.06 4.06 0 0 1-2.58.91zM208.6 210.42a2.56 2.56 0 0 0-1.64.59 2.61 2.61 0 0 0 1.37 4.63l130.83 16.74a2.62 2.62 0 0 0 2.87-2.33 2.63 2.63 0 0 0-2.32-2.88l-130.84-16.73-.27-.02z"/><path fill="#123456" d="M241.42 220s-.33-3.6-3.69-3.32c-3.36.28-4.06 2.68-4.06 2.88 0 .2 7.75.44 7.75.44z"/><path fill="#123456" d="M241.42 220.77c-8.47-.26-8.47-.3-8.47-1.19 0-.5.88-3.3 4.74-3.63a4.13 4.13 0 0 1 4.5 4 .74.74 0 0 1-.74.81l-.03.01zm-6.66-1.77c1.2.09 3.47.2 5.72.27a2.46 2.46 0 0 0-2.68-1.79 3.86 3.86 0 0 0-3.04 1.52z"/><path fill="#DAF0FA" d="M211.62 226.36a3.36 3.36 0 0 1-4.39-1.86l-37.9-94.78a3.37 3.37 0 0 1 1.86-4.38 3.38 3.38 0 0 1 4.39 1.86l37.89 94.8a3.35 3.35 0 0 1-1.85 4.36z"/><path fill="#123456" d="M210.35 227.36a4.13 4.13 0 0 1-3.82-2.58L168.63 130a4.13 4.13 0 0 1 2.28-5.35 4.11 4.11 0 0 1 5.36 2.27l37.9 94.79a4.11 4.11 0 0 1-2.27 5.35 4.19 4.19 0 0 1-1.55.3zm-37.9-101.52a2.63 2.63 0 0 0-2.42 3.6l37.9 94.78a2.61 2.61 0 0 0 3.4 1.45 2.62 2.62 0 0 0 1.45-3.41l-37.9-94.78a2.62 2.62 0 0 0-2.43-1.64z"/><path fill="#F9E3CD" d="m212.66 171.44-19.84-14.88-5.9 7.87 16.8 12.59z"/><path fill="#F9E3CD" d="m224.39 153.21-7.85-3.53L202.59 176l2.81 2.63a4.72 4.72 0 0 0 7.5-1.4l11.49-24.02z"/><path fill="#123456" d="M205.05 179.14a.74.74 0 0 1-.46-.16L186.46 165a.75.75 0 0 1-.14-1l5.9-7.87a.76.76 0 0 1 .49-.29.74.74 0 0 1 .56.14l14 10.46a.76.76 0 0 1 .15 1.05.75.75 0 0 1-1.05.15l-13.35-10-5 6.67 17.54 13.52a.75.75 0 0 1 .14 1 .76.76 0 0 1-.65.31z"/><path fill="#123456" d="M208.61 180.66a5.43 5.43 0 0 1-3.73-1.49.75.75 0 0 1 1.06-1.06 4 4 0 0 0 6.31-1.18l11.16-23.32-6.51-2.93-10.17 18.49a.75.75 0 0 1-1.31-.73l10.5-19.09a.75.75 0 0 1 1-.32l7.85 3.53a.75.75 0 0 1 .4.42.73.73 0 0 1 0 .58l-11.49 24a5.4 5.4 0 0 1-3.94 3 5.14 5.14 0 0 1-1.13.1z"/><path fill="#F9E3CD" d="M216.02 151.08s-2.65-6 2.62-7.61c5.27-1.61 8.16-.75 8.16-.75l4.25 4.7-7.38 6.58"/><path fill="#123456" d="M223.67 154.79a.78.78 0 0 1-.56-.25.76.76 0 0 1 .06-1.06l6.82-6.12-3.59-4a16.11 16.11 0 0 0-7.53.79 3.61 3.61 0 0 0-2.42 1.92c-.9 2 .24 4.64.26 4.67a.752.752 0 0 1-1.38.6c-.06-.13-1.43-3.29-.25-5.89a5.11 5.11 0 0 1 3.34-2.74c5.3-1.64 8.44-.79 8.58-.75a.72.72 0 0 1 .35.22l4.25 4.7a.71.71 0 0 1 .2.54.76.76 0 0 1-.25.52l-7.38 6.62a.78.78 0 0 1-.5.23z"/><path fill="#DAF0FA" d="m194.54 154.42-7.78-5.82c-4-3-9.29-2.61-11.84.79-2.55 3.41-1.41 8.62 2.55 11.59l7.77 5.83 9.3-12.39z"/><path fill="#123456" d="M185.25 167.56a.81.81 0 0 1-.45-.15l-7.77-5.83c-4.3-3.22-5.51-8.89-2.7-12.64 2.81-3.75 8.59-4.17 12.89-.94l7.77 5.82a.76.76 0 0 1 .15 1.05l-9.29 12.39a.76.76 0 0 1-.49.29l-.11.01zm-4.33-20.23h-.55a6.45 6.45 0 0 0-4.84 2.49c-2.31 3.09-1.23 7.81 2.4 10.54l7.17 5.38 8.39-11.19-7.17-5.37a9 9 0 0 0-5.4-1.85z"/><path fill="#1B9FE1" d="M202.52 216.12c1.57 8.78-3.47 18.78-12.58 20.59l-.68.14c-9.11 1.81-19-5.23-20.56-14l-.76-4.27 33.82-6.73.76 4.27z"/><path fill="#123456" d="M181.9 237.36h-.09c-11-1.27-13.44-12.09-13.82-14.24l-.77-4.28a.75.75 0 0 1 .6-.86l33.81-6.72a.72.72 0 0 1 .57.12.75.75 0 0 1 .32.49l.76 4.27c.37 2.07.34 4.192-.09 6.25a.751.751 0 0 1-1.47-.31c.391-1.87.419-3.8.08-5.68l-.62-3.52-32.35 6.42.63 3.55c.5 2.77 2.86 11.9 12.53 13a.75.75 0 0 1-.09 1.49v.02z"/><path fill="#DAF0FA" d="M149.83 157.39a20.9 20.9 0 0 0-5.88 3.63l26.16 64.58 11.33-4.6-26.59-65.65-5.02 2.04z"/><path fill="#123456" d="M170.11 226.35a.72.72 0 0 1-.29-.06.78.78 0 0 1-.41-.41l-26.16-64.58a.76.76 0 0 1 .21-.85 21.45 21.45 0 0 1 6.08-3.75l5-2a.76.76 0 0 1 1 .42l26.59 65.65a.75.75 0 0 1-.41 1l-11.34 4.59a.71.71 0 0 1-.27-.01zm-25.26-65.11 25.67 63.38 10-4-26-64.26-4.33 1.76a19.76 19.76 0 0 0-5.34 3.12z"/><path fill="#DAF0FA" d="m195.93 215.14 7.83-3.14-18.06-44.59-8.09-20a21.16 21.16 0 0 0-6.8 1.49l-1.47.6 8.42 20.71 18.17 44.93z"/><path fill="#123456" d="M195.93 215.89a.76.76 0 0 1-.7-.47l-26.59-65.65a.76.76 0 0 1 .42-1l1.47-.59a21.76 21.76 0 0 1 7-1.55.75.75 0 0 1 .73.47l26.15 64.57a.71.71 0 0 1 0 .57.76.76 0 0 1-.41.4l-7.83 3.17a.71.71 0 0 1-.24.08zm-25.61-66 26 64.26 6.44-2.61-25.66-63.36a20.17 20.17 0 0 0-6 1.4l-.78.31z"/><path fill="#1B9FE1" d="m189.94 200.34-14.58 5.65 2.12 5.23 14.58-5.65zm-12.21-30.13-1.44-3.55-14.57 5.65 3.14 7.74 14.57-5.65zm3.72 50.8 14.48-5.87-.2-.5-14.58 5.64zm-12.11-71.52-14.48 5.87 3.19 7.88 14.57-5.64zm13.76 33.98-14.57 5.64 3.16 7.82 14.58-5.65z"/><path fill="#92D2F1" d="m174.46 162.13-1.84-4.53-14.57 5.64 1.83 4.53 1.84 4.54 14.57-5.65zm6.81 16.81-1.84-4.54-14.57 5.65 1.83 4.53 1.84 4.53 14.57-5.64zm6.83 16.87-1.83-4.53-14.58 5.65 1.84 4.53 1.83 4.53 14.58-5.65zm5.79 14.3-1.83-4.54-14.58 5.65 1.84 4.53 1.83 4.53 14.58-5.64z"/><path fill="#123456" d="M181.44 221.76a.72.72 0 0 1-.29-.06.76.76 0 0 1-.4-.41l-26.59-65.65a.75.75 0 0 1 .41-1l14.49-5.87a.75.75 0 0 1 .57 0 .73.73 0 0 1 .4.41l26.59 65.65a.74.74 0 0 1-.41 1l-14.45 5.87a.72.72 0 0 1-.32.06zm-25.61-66 26 64.26 13.09-5.3-17.91-44.24-8.11-20-13.07 5.28z"/><path fill="#F9E3CD" d="m114.34 154.54 4.44-8.78 18.82 10.94-4.43 8.77z"/><path fill="#123456" d="M133.17 166.22a.78.78 0 0 1-.37-.09l-19.22-11a.75.75 0 0 1 .75-1.3l18.53 10.57 3.75-7.44-18.21-10.58a.75.75 0 1 1 .75-1.3l18.83 10.94a.75.75 0 0 1 .29 1l-4.43 8.77a.74.74 0 0 1-.45.38.83.83 0 0 1-.22.05z"/><path fill="#DAF0FA" d="m130.93 167 8.43 4.82c4.29 2.45 9.53 1.44 11.65-2.25 2.11-3.69.33-8.72-4-11.18l-8.43-4.82-7.65 13.43z"/><path fill="#123456" d="M144.29 173.9a10.73 10.73 0 0 1-5.31-1.44l-8.43-4.82a.78.78 0 0 1-.35-.46.76.76 0 0 1 .08-.57l7.68-13.43a.76.76 0 0 1 1-.28l8.42 4.82c4.67 2.67 6.57 8.14 4.25 12.21a7.88 7.88 0 0 1-5.52 3.79 9.59 9.59 0 0 1-1.82.18zm-12.34-7.19 7.78 4.45a9 9 0 0 0 6.13 1.09 6.44 6.44 0 0 0 4.5-3.07c1.91-3.34.26-7.9-3.69-10.16l-7.78-4.45-6.94 12.14z"/><path fill="#F9E3CD" d="m115.34 155.26-2.94-1.66a6.4 6.4 0 0 1-2.39-8.77l14.24-27.11 8.56 4.84-13.13 25.19"/><path fill="#123456" d="M115.34 156a.74.74 0 0 1-.37-.1l-2.94-1.66a7.17 7.17 0 0 1-2.67-9.8l14.22-27.07a.77.77 0 0 1 1-.31l8.56 4.84a.75.75 0 0 1 .29 1l-13.13 25.18a.75.75 0 0 1-1.33-.69l12.8-24.54-7.26-4.1-13.88 26.42a5.65 5.65 0 0 0 2.13 7.83l2.94 1.66a.75.75 0 0 1-.37 1.4l.01-.06z"/><path fill="#F9E3CD" d="m127.064 112.428 8.838 4.46-7.236 14.338-8.838-4.46z"/><path fill="#F9E3CD" d="m133.31 119.09 3.09-6.12s1.87.41 2.1 1c.23.59-2.46 6-2.46 6s-1.84 9.17-6.41 8.47l-1.53 3"/><path fill="#123456" d="M128.1 132.19a.84.84 0 0 1-.34-.08.75.75 0 0 1-.33-1l1.53-3a.75.75 0 0 1 .78-.4c3.16.48 5.09-5.52 5.57-7.88a.7.7 0 0 1 .06-.19 43.6 43.6 0 0 0 2.37-5.41 6.79 6.79 0 0 0-.94-.34l-2.82 5.58a.75.75 0 0 1-1 .33.76.76 0 0 1-.33-1l3.09-6.12a.75.75 0 0 1 .83-.39c1 .22 2.33.66 2.64 1.43.12.31.35.88-2.44 6.52-.22 1-2.08 9-6.62 9h-.07l-1.3 2.57a.74.74 0 0 1-.68.38z"/><path fill="#F9E3CD" d="m130.76 117.74 3.38-6.71s1.94.39 2.16 1c.22.61-2.73 6.55-2.73 6.55"/><path fill="#123456" d="M133.57 119.33a.75.75 0 0 1-.67-1.08 49.85 49.85 0 0 0 2.64-6 6.36 6.36 0 0 0-1-.35l-3.12 6.18a.751.751 0 1 1-1.34-.68l3.39-6.71a.73.73 0 0 1 .81-.39c1.07.21 2.41.64 2.71 1.48.11.29.34.91-2.76 7.13a.73.73 0 0 1-.66.42z"/><path fill="#F9E3CD" d="m128.2 116.73 3.61-7.16s1.95.35 2.16 1c.21.65-3.06 6.87-3.06 6.87"/><path fill="#123456" d="M130.91 118.19a.73.73 0 0 1-.35-.09.74.74 0 0 1-.31-1 55.19 55.19 0 0 0 2.95-6.33 5.63 5.63 0 0 0-1-.33l-3.35 6.63a.75.75 0 1 1-1.34-.67l3.61-7.16a.74.74 0 0 1 .8-.4c.9.16 2.44.57 2.74 1.51.1.31.3 1-3.1 7.45a.77.77 0 0 1-.65.39z"/><path fill="#F9E3CD" d="m125.22 115.12 4.36-8.62s2.22.37 2.45 1.13c.23.76-3.57 8.37-3.57 8.37"/><path fill="#123456" d="M128.46 116.75a.81.81 0 0 1-.34-.08.76.76 0 0 1-.34-1 63.87 63.87 0 0 0 3.49-7.85 4.93 4.93 0 0 0-1.28-.46l-4.1 8.11a.75.75 0 0 1-1 .33.76.76 0 0 1-.34-1l4.36-8.62a.72.72 0 0 1 .79-.4c1 .17 2.74.61 3.05 1.65.08.29.3 1-3.62 8.92a.74.74 0 0 1-.67.4z"/><path fill="#F9E3CD" d="M125.17 118.93a3.59 3.59 0 0 0 .32-4l2-3.61a3.19 3.19 0 0 0-2.25-1.08c-1.2.11-2.16 2.86-2.69 4.13-.53 1.27-.56.74-1.18 2.29a11.08 11.08 0 0 0-.16 6.69l-1.79 3.54"/><path fill="#123456" d="M119.4 127.63a.81.81 0 0 1-.34-.08.75.75 0 0 1-.33-1l1.65-3.28a11.69 11.69 0 0 1 .27-6.89 5.61 5.61 0 0 1 .74-1.44 3.77 3.77 0 0 0 .45-.86l.2-.49c.67-1.67 1.59-4 3.12-4.09a3.9 3.9 0 0 1 2.88 1.33.77.77 0 0 1 .09.86l-1.8 3.27a4.12 4.12 0 0 1-.61 4.48.75.75 0 0 1-1.06 0 .75.75 0 0 1-.05-1.06 2.81 2.81 0 0 0 .23-3.13.76.76 0 0 1 0-.73l1.7-3.09a2 2 0 0 0-1.24-.49c-.4 0-1 1.1-1.86 3.16l-.21.51a5 5 0 0 1-.6 1.14 4.28 4.28 0 0 0-.58 1.13 10.41 10.41 0 0 0-.14 6.19.8.8 0 0 1 0 .57l-1.79 3.54a.75.75 0 0 1-.72.45z"/><path fill="#FFF" d="M127.38 119.22c.5-.24 5.62 3 5.62 3"/><path fill="#123456" d="M133 123a.78.78 0 0 1-.41-.12 37.66 37.66 0 0 0-5.13-2.88.75.75 0 0 1-.4-1.43c.37-.17.88-.41 6.34 3a.75.75 0 0 1-.4 1.38v.05zm-2.66 6.1a4.8 4.8 0 0 1-2.56-.81.752.752 0 0 1 .79-1.28 2.65 2.65 0 0 0 3.25.09l.27-.16a.75.75 0 1 1 .69 1.33l-.16.1a4.2 4.2 0 0 1-2.28.73zm-5.94-2.42a.92.92 0 0 1-.28-.05 6.78 6.78 0 0 1-3.88-3.34.75.75 0 1 1 1.38-.57 5.44 5.44 0 0 0 3 2.51.75.75 0 0 1 .42 1 .73.73 0 0 1-.64.45z"/><rect width="15.5" height="26.23" x="155.042" y="139.237" fill="#F9E3CD" rx="7" transform="rotate(157.95 162.792 152.352)"/><path fill="#8E8E8E" d="m169.13 154.21-.41.17c-1.87.75-7.62 1-13.9.09l-.92-2.29a7.75 7.75 0 0 1 14.36-5.82l2.69 6.64a7.2 7.2 0 0 1-1.82 1.21z"/><path fill="#123456" d="M164.41 166a7.77 7.77 0 0 1-7.2-4.84l-4.58-11.33a7.75 7.75 0 0 1 4.27-10.09l1.38-.56a7.76 7.76 0 0 1 10.1 4.27l4.59 11.33a7.79 7.79 0 0 1-4.28 10.1l-1.38.56a7.78 7.78 0 0 1-2.9.56zm-3.23-25.89a6.09 6.09 0 0 0-2.33.46l-1.39.56a6.25 6.25 0 0 0-3.44 8.14l4.58 11.33a6.28 6.28 0 0 0 8.15 3.45l1.38-.56a6.29 6.29 0 0 0 3.45-8.15l-4.59-11.32a6.21 6.21 0 0 0-3.36-3.41 6.35 6.35 0 0 0-2.45-.46v-.04z"/><path fill="#DAF0FA" d="m169.42 147.71 1.88 10.37 7.92 3.69-5.83-13.44z"/><path fill="#123456" d="M179.22 162.52a.71.71 0 0 1-.32-.07l-7.92-3.69a.73.73 0 0 1-.42-.54l-1.88-10.38a.77.77 0 0 1 .2-.66.8.8 0 0 1 .66-.22l4 .62a.73.73 0 0 1 .57.45l5.83 13.44a.75.75 0 0 1-.16.84.73.73 0 0 1-.56.21zm-7.26-5 5.78 2.69-4.88-11.21-2.52-.39 1.62 8.91z"/><path fill="#DAF0FA" d="m154.18 153.54 7.76 9.14-3.69 7.57-6.02-13.7z"/><path fill="#123456" d="M158.25 171a.75.75 0 0 1-.67-.45l-6-13.7a.75.75 0 0 1 .06-.71l1.95-3a.76.76 0 0 1 .58-.33.72.72 0 0 1 .62.26l7.76 9.13a.73.73 0 0 1 .11.81l-3.69 7.58a.75.75 0 0 1-.72.41zm-5.18-14.38 5.22 11.85 2.76-5.68-6.79-8-1.19 1.83z"/><path fill="#F9E3CD" d="m166.13 150.27.43-.12c4.44-1.29 16.77-15.4 13.33-27.29l-6.54-22.55c-3.44-11.88-16.63-18.6-29.3-14.93-12.68 3.67-20.23 16.4-16.79 28.29l6.5 22.55c3.48 11.88 27.93 15.34 32.37 14.05z"/><path fill="#123456" d="M163.46 151.28a52.28 52.28 0 0 1-14.09-2.38c-6.35-2-14.34-5.71-16.29-12.48l-6.54-22.55a22.4 22.4 0 0 1 2.43-17.81 25.39 25.39 0 0 1 14.87-11.4c13.1-3.8 26.67 3.13 30.23 15.44l6.54 22.55c3.55 12.29-8.87 26.78-13.84 28.22l-.43.12a11.17 11.17 0 0 1-2.88.29zm-12.34-66.16a24.78 24.78 0 0 0-6.86 1 23.85 23.85 0 0 0-14 10.73 20.91 20.91 0 0 0-2.28 16.63l6.54 22.52c3.31 11.44 27.59 14.64 31.4 13.54l.43-.12c3.82-1.11 16.22-14.6 12.82-26.36l-6.54-22.55c-2.71-9.36-11.65-15.39-21.51-15.39z"/><path fill="#F78F8F" d="M169.13 131a7.155 7.155 0 1 1-13.74 4l13.74-4z"/><path fill="#EFEFEF" d="M156.47 136.53a6.89 6.89 0 0 1-1-1.94l13.74-4a7.2 7.2 0 0 1 .23 2.15l-12.97 3.79z"/><path fill="#F56B6B" d="m159.04 138.78.1-.07c2.64-1.71 3.89-2 4.66-1.23.26-1 1.44-1.49 4.59-1.45h.12a7.16 7.16 0 0 1-9.47 2.74v.01z"/><path fill="#123456" d="M162.3 139.94a7.45 7.45 0 0 1-7.12-5.25.36.36 0 0 1 0-.27.39.39 0 0 1 .21-.17l13.74-4a.32.32 0 0 1 .27 0 .32.32 0 0 1 .17.22 7.52 7.52 0 0 1-7.29 9.42l.02.05zm-6.34-5.12a6.81 6.81 0 0 0 13-3.78l-13 3.78zm15.95-25.63a9.14 9.14 0 0 0-7.42-.34c-1.35.49-1.82-1.7-.49-2.18a11.28 11.28 0 0 1 9.13.65c1.28.64 0 2.52-1.22 1.87zm-30.94 8.47a9.13 9.13 0 0 1 6.39-3.77c1.42-.2.82-2.36-.59-2.16a11.3 11.3 0 0 0-7.76 4.84c-.82 1.18 1.13 2.26 2 1.09h-.04zm20.46 11.16a.34.34 0 0 1-.32-.21.35.35 0 0 1 .17-.46 5 5 0 0 0 2.37-1.63 1.83 1.83 0 0 0 .17-1.48 1 1 0 0 0-.6-.66 1.93 1.93 0 0 0-.5-.1 2.56 2.56 0 0 1-.86-.23c-.75-.42-.82-1.26-.88-2a3 3 0 0 0-.31-1.35.35.35 0 0 1 .59-.38 3.46 3.46 0 0 1 .42 1.68c.06.75.13 1.22.52 1.43.19.085.393.136.6.15.224.023.446.07.66.14.484.19.853.592 1 1.09a2.49 2.49 0 0 1-.24 2.08 5.62 5.62 0 0 1-2.67 1.9l-.12.03z"/><path fill="#123456" d="M166.61 95.71a9.5 9.5 0 0 0 3.63-2.91c.34-.41.72-.86 1.21-1.38a.88.88 0 0 1 .64-.28.84.84 0 0 1 .65.27c2.53 2.6 4.58 9.66 6.09 14.82.35 1.22.68 2.33 1 3.22a.9.9 0 0 1-.44 1.07.85.85 0 0 1-.17.06.9.9 0 0 1-.95-.31c-1-1.28-1-1.3-2.32-1a.88.88 0 0 1-1-.68l-.27-1.16-3.66-.9a.87.87 0 0 1-.6-.5l-4.14-9.11a.89.89 0 0 1 .33-1.21zm-44.52 3.39H122a6.32 6.32 0 0 1-3.86-1.9.75.75 0 1 1 1.09-1 4.87 4.87 0 0 0 2.94 1.44.75.75 0 0 1-.08 1.49v-.03z"/><path fill="#123456" d="M117.05 101.63a.73.73 0 0 1-.5-.19.76.76 0 0 1-.06-1.06c1.75-1.93 2.69-2 4.94-2.11h.3a.751.751 0 1 1 .08 1.5h-.3c-2.13.11-2.57.14-3.9 1.61a.75.75 0 0 1-.56.25z"/><path fill="#123456" d="M121.84 98.59a10.71 10.71 0 0 1-.12-9.46c4.24-8.92 20.09-13.53 24.84-14.72a4.51 4.51 0 0 0 2.95-2.08c1.44-2.4.58-5.91.57-6a.89.89 0 0 1 .23-.85.92.92 0 0 1 .85-.24c2.48.64 3.63 3.87 4.11 5.92 1.75-2.33 1.94-6.41 1.94-6.46a.91.91 0 0 1 .93-.86c5.15.22 6.85 8 7.33 11.1 3.34-1.93 7.72-6.39 7.77-6.44a.88.88 0 0 1 1.3.03c1.89 2.11 4.36 8.68 1.63 20-3.07 12.66-30.28 16.86-39.22 18.24l-1.45.22.24 8a.89.89 0 0 1-.15.53l-1.53 2.26 2.12 7.33a.88.88 0 0 1-.61 1.1l-3.72 1.08a.89.89 0 0 1-1.11-.61l-.84-2.91c-.9 1.12-2 2.14-3 2a1.65 1.65 0 0 1-1.31-1.31c0-.12-.27-.64-.49-1.14-2.11-4.61-8.25-18.32-3.26-24.73z"/><path fill="#F9E3CD" d="m137.184 128.813-5.878 1.703-.81-2.795 5.878-1.703z"/><path fill="#F9E3CD" d="m132.18 127.26-1.39-4.8a4.92 4.92 0 0 0-3.93 6.22l1.43 4.94a4.92 4.92 0 0 0 6.09 3.35 3.07 3.07 0 0 0 .55-.23s1.63-1 1.21-2.44"/><path fill="#123456" d="M133.01 137.92a5.67 5.67 0 0 1-5.44-4.09l-1.43-4.94a5.66 5.66 0 0 1 4.53-7.15.75.75 0 0 1 .84.53l1.4 4.8a.76.76 0 0 1-.52.93.75.75 0 0 1-.93-.51l-1.19-4.11a4.16 4.16 0 0 0-2.69 5.11l1.43 4.94a4.16 4.16 0 0 0 5.16 2.84 2.67 2.67 0 0 0 .36-.14s1.13-.7.87-1.59a.75.75 0 0 1 .51-.93.76.76 0 0 1 .93.51 3 3 0 0 1-1.55 3.29 2.4 2.4 0 0 1-.72.31 5.44 5.44 0 0 1-1.56.2z"/><path fill="#123456" d="M132.85 133.74c-1.46 0-2.55-1.48-3-2.39a.36.36 0 0 1 .18-.47.34.34 0 0 1 .46.18s1.16 2.47 2.85 1.89a.34.34 0 0 1 .44.21.35.35 0 0 1-.21.45 2.28 2.28 0 0 1-.72.13z"/><path fill="#F9E3CD" d="M175.76 108.72a4.94 4.94 0 0 1 4.81 3.54l1.43 4.94a5 5 0 0 1-2.17 5.56l-4.07-14.04z"/><path fill="#123456" d="M179.85 123.51a.86.86 0 0 1-.27-.05.76.76 0 0 1-.45-.49l-4.07-14a.77.77 0 0 1 .12-.66.76.76 0 0 1 .59-.3h.08a5.69 5.69 0 0 1 5.46 4.08l1.45 4.91a5.69 5.69 0 0 1-2.5 6.41.77.77 0 0 1-.41.1zm-3-13.93 3.45 11.9a4.16 4.16 0 0 0 1-4.07l-1.44-4.94a4.17 4.17 0 0 0-3.05-2.89h.04z"/><path fill="#123456" d="M178.61 119a.33.33 0 0 1-.31-.2.35.35 0 0 1 .17-.47c1-.47.39-2 .38-2a.35.35 0 0 1 .19-.46.36.36 0 0 1 .46.19c.31.76.56 2.35-.74 3a.4.4 0 0 1-.15-.06z"/><path fill="#1B9FE1" d="m226.34 227.85 5.21.7c.2-7.19 3.57-10.39 6.89-11.8l-33.34-4c-1.92-.2-5 1-5.13 3.11l.22 6.88a4 4 0 0 0 .37 2l-9.33-1.19a6.85 6.85 0 0 0-7.33 6.54 7.24 7.24 0 0 0 6.13 8l27.94 3.59c-1.97-13.83 8.37-13.83 8.37-13.83z"/><path fill="#F9E3CD" d="M303.36 227.71s-66.19-8.61-67.39-8.75c-2.73-.33-4.4 4.43-4.53 9.22l-5.1-.33s-9.16 1.25-8.55 10.24l60.44 7.62c3.72.4 8.11.78 8.44-3.22a7.68 7.68 0 0 0-2-5.83l15.73 2c1.92.2 6.38-1.42 6.55-3.49l.78-4.3c.21-2.08-2.45-2.95-4.37-3.16z"/><path fill="#123456" d="M238.44 217.5h-.09l-35-4.18a.75.75 0 0 1 .18-1.49l35 4.17a.751.751 0 1 1-.09 1.5zm62.67 21.93h-.75l-15.75-2a.751.751 0 1 1 .19-1.49l15.73 2a5.63 5.63 0 0 0 4.17-1.29 6.63 6.63 0 0 0 2.32-4.57c.25-3-.81-3.22-4.51-3.61l-.46-.05-66.81-8.67a.751.751 0 1 1 .19-1.49l67.23 8.74c3.35.35 6.23.65 5.86 5.22a8.19 8.19 0 0 1-2.86 5.6 7.09 7.09 0 0 1-4.55 1.61z"/><path fill="#123456" d="M282.44 246.66c-1 0-2.05-.12-3.14-.23h-.2l-61.41-7.58a.75.75 0 1 1 .19-1.48l61.58 7.58c2.31.25 4.49.48 5.59-.42a2.89 2.89 0 0 0 .87-2.09 6.5 6.5 0 0 0-5.46-7.16l-82-10.21a.75.75 0 1 1 .19-1.48l82 10.2a8 8 0 0 1 6.78 8.78 4.31 4.31 0 0 1-1.41 3.11 5.38 5.38 0 0 1-3.58.98zm-64.45-4.34h-.1l-34-4.13a.75.75 0 1 1 .18-1.49l34 4.13a.751.751 0 1 1-.09 1.5l.01-.01z"/><path fill="#123456" d="M218.1 241.21a.74.74 0 0 1-.73-.61c-.87-4.58-.27-8.11 1.78-10.48a9.72 9.72 0 0 1 7.22-3l4.35.28c.46-7.33 4.4-9.84 7.37-11.09a.73.73 0 0 1 1 .4.75.75 0 0 1-.4 1c-2.92 1.23-6.29 3.54-6.48 10.53a.78.78 0 0 1-.25.53.74.74 0 0 1-.55.19l-5.1-.33a8.34 8.34 0 0 0-6 2.52c-1.73 2-2.22 5.11-1.44 9.21a.75.75 0 0 1-.6.88l-.17-.03z"/><path fill="#92D2F1" d="m305.22 240-1.43.6c-3.72 1.54-7.82-.78-9.13-5.18l-7.16-24.07c-1.3-4.39.66-9.24 4.38-10.79l1.43-.6c3.71-1.54 7.82.79 9.12 5.18l7.17 24.07c1.3 4.4-.67 9.26-4.38 10.79z"/><path fill="#123456" d="M301.43 241.84a6.93 6.93 0 0 1-3-.69 8.79 8.79 0 0 1-4.49-5.5l-7.18-24.07c-1.41-4.76.74-10 4.81-11.7l1.43-.6a6.88 6.88 0 0 1 5.65.15 8.77 8.77 0 0 1 4.48 5.5l7.19 24.07c1.41 4.75-.74 10-4.81 11.69l-1.43.6a6.86 6.86 0 0 1-2.65.55zm-5.76-41.59a5.36 5.36 0 0 0-2.07.42l-1.44.59c-3.37 1.41-5.14 5.84-3.94 9.89l7.16 24.07a7.24 7.24 0 0 0 3.7 4.57 5.37 5.37 0 0 0 4.42.13l1.43-.6c3.38-1.41 5.15-5.84 3.95-9.89l-7.12-24.07a7.26 7.26 0 0 0-3.7-4.57 5.42 5.42 0 0 0-2.39-.54z"/><path fill="#00A1E8" d="m308.51 238.56-1.44.6c-3.71 1.55-7.81-.78-9.12-5.17l-7.19-24.08c-1.31-4.39.66-9.24 4.37-10.79l1.44-.59c3.71-1.55 7.82.78 9.12 5.17l7.16 24.07c1.34 4.39-.63 9.23-4.34 10.79z"/><path fill="#123456" d="M304.76 240.39a6.92 6.92 0 0 1-3-.69 8.76 8.76 0 0 1-4.49-5.5l-7.16-24.07c-1.42-4.76.74-10 4.8-11.7l1.44-.6a6.85 6.85 0 0 1 5.64.15 8.77 8.77 0 0 1 4.49 5.51l7.16 24.07c1.42 4.76-.74 10-4.8 11.7l-1.44.59a6.79 6.79 0 0 1-2.64.54zm-5.8-41.59a5.4 5.4 0 0 0-2.08.42l-1.43.6c-3.38 1.4-5.15 5.84-3.94 9.88l7.16 24.07a7.27 7.27 0 0 0 3.69 4.58 5.43 5.43 0 0 0 4.43.12l1.43-.6c3.38-1.41 5.15-5.84 3.94-9.88L305 203.91a7.25 7.25 0 0 0-3.69-4.57 5.49 5.49 0 0 0-2.35-.54z"/><path fill="#92D2F1" d="m284.43 250.14-1.44.59c-3.71 1.55-7.81-.78-9.12-5.17l-7.11-24.07c-1.31-4.39.66-9.25 4.37-10.79l1.44-.6c3.71-1.55 7.81.78 9.12 5.17l7.07 24.08c1.35 4.39-.62 9.24-4.33 10.79z"/><path fill="#123456" d="M280.63 252a7 7 0 0 1-3-.68 8.77 8.77 0 0 1-4.49-5.51l-7.16-24.07c-1.42-4.76.74-10 4.8-11.7l1.44-.59a6.82 6.82 0 0 1 5.64.15 8.76 8.76 0 0 1 4.49 5.5l7.16 24.07c1.42 4.76-.74 10-4.8 11.7l-1.44.6a7 7 0 0 1-2.64.53zm-5.75-41.59a5.37 5.37 0 0 0-2.08.42l-1.43.6c-3.38 1.4-5.15 5.84-3.94 9.88l7.16 24.08a7.25 7.25 0 0 0 3.69 4.57 5.35 5.35 0 0 0 4.48.04l1.43-.6c3.38-1.4 5.15-5.84 3.94-9.88l-7.16-24.07a7.24 7.24 0 0 0-3.69-4.58 5.49 5.49 0 0 0-2.4-.5v.04z"/><path fill="#00A1E8" d="m287.76 248.69-1.43.6c-3.71 1.54-7.82-.79-9.12-5.18L269.99 220c-1.3-4.39.67-9.25 4.38-10.79l1.43-.6c3.72-1.54 7.82.78 9.13 5.18l7.16 24.07c1.31 4.43-.66 9.28-4.33 10.83z"/><path fill="#123456" d="M283.92 250.51a6.87 6.87 0 0 1-3-.68 8.72 8.72 0 0 1-4.49-5.5l-7.16-24.08c-1.42-4.75.73-10 4.8-11.69l1.43-.6a6.88 6.88 0 0 1 5.65.15 8.79 8.79 0 0 1 4.49 5.5l7.16 24.07c1.41 4.76-.74 10-4.81 11.7l-1.43.6a6.81 6.81 0 0 1-2.64.53zm-5.76-41.58a5.53 5.53 0 0 0-2.07.41l-1.43.6c-3.38 1.41-5.15 5.84-3.95 9.89l7.16 24.07a7.27 7.27 0 0 0 3.7 4.57 5.33 5.33 0 0 0 4.42.12l1.44-.59c3.37-1.41 5.14-5.84 3.94-9.89L284.21 214a7.24 7.24 0 0 0-3.7-4.57 5.42 5.42 0 0 0-2.35-.5z"/><path fill="#123456" d="M273.17 219.63a.75.75 0 0 1-.3-1.44l9.1-4a.75.75 0 1 1 .61 1.37l-9.11 4a.8.8 0 0 1-.3.07zm1.79 6.01a.74.74 0 0 1-.68-.44.75.75 0 0 1 .38-1l9.11-4a.75.75 0 0 1 .61 1.37l-9.11 4a.81.81 0 0 1-.31.07zm1.8 6.02a.75.75 0 0 1-.3-1.44l9.1-4a.75.75 0 1 1 .61 1.37l-9.11 4a.63.63 0 0 1-.3.07zm1.79 6.01a.74.74 0 0 1-.68-.44.75.75 0 0 1 .38-1l9.11-4a.75.75 0 0 1 .61 1.37l-9.11 4a.81.81 0 0 1-.31.07zm1.8 6.02a.75.75 0 0 1-.3-1.44l9.1-4a.75.75 0 1 1 .61 1.37l-9.11 4a.66.66 0 0 1-.3.07zM293.58 209a.74.74 0 0 1-.3-1.43l9.1-4a.75.75 0 0 1 .61 1.37l-9.11 4a.77.77 0 0 1-.3.06zm1.8 6a.75.75 0 0 1-.31-1.44l9.11-4a.76.76 0 0 1 1 .39.75.75 0 0 1-.38 1l-9.11 4a.66.66 0 0 1-.31.05zm1.79 6a.73.73 0 0 1-.68-.44.74.74 0 0 1 .38-1l9.1-4a.75.75 0 1 1 .61 1.37l-9.11 4a.77.77 0 0 1-.3.07zm1.8 6a.75.75 0 0 1-.31-1.44l9.11-4a.75.75 0 0 1 .61 1.37l-9.11 4a.66.66 0 0 1-.3.07zm1.79 6a.73.73 0 0 1-.68-.44.74.74 0 0 1 .38-1l9.11-4a.74.74 0 0 1 1 .38.75.75 0 0 1-.38 1l-9.11 4a.77.77 0 0 1-.32.06zm-150-117.53-5.26 14a7.79 7.79 0 0 0 1.59.52l5.67-14.99-2 .47zm-9.78 2.53a1.4 1.4 0 0 0-1 1.72l1.29 4.71a7.57 7.57 0 0 0 2.35 3.8l4.56-12.1-7.2 1.87zm16.17 2.31-1.29-4.71a1.41 1.41 0 0 0-1.72-1H154l-5.83 15.48a7.82 7.82 0 0 0 2.34-.23l1.22-.32a7.57 7.57 0 0 0 5.42-9.22z"/><path fill="#244E70" d="m148.18 116.14-4.56 12.1a7.27 7.27 0 0 0 1.86 1.19l5.26-14-2.56.71zm4.58-1.14-5.65 15a10 10 0 0 0 1.1.15l5.83-15.48-1.28.33z"/><path fill="#123456" d="M162.12 112.52c-.75.2-1.197.97-1 1.72l1.29 4.71a7.57 7.57 0 0 0 2.72 4.1l4.72-12.53-7.73 2zm16.16 2.3-1.29-4.71a1.39 1.39 0 0 0-1.36-1l-5.87 15.51a8 8 0 0 0 1.87-.24l1.22-.32a7.57 7.57 0 0 0 5.43-9.24zm-5.88-4.97-5.38 14.26a7.4 7.4 0 0 0 1.63.44l5.73-15.22-1.98.52z"/><path fill="#244E70" d="m169.84 110.52-4.72 12.53a7.7 7.7 0 0 0 1.9 1.06l5.38-14.26-2.56.67zm5.43-1.42-.89.23-5.73 15.22a8.32 8.32 0 0 0 1.12.07l5.86-15.54a1.45 1.45 0 0 0-.36.02z"/><path fill="#F9E3CD" d="M155.69 119.49s2.23-4.46 7.47-1.89"/><path fill="#123456" d="M155.69 120.24a.64.64 0 0 1-.33-.08.73.73 0 0 1-.34-1s2.63-5.09 8.47-2.24a.751.751 0 0 1-.66 1.35c-4.52-2.21-6.39 1.4-6.47 1.56a.74.74 0 0 1-.67.41z"/><path fill="#F9E3CD" d="m141.65 120.92-14.59 1.36"/><path fill="#123456" d="M127.05 123a.74.74 0 0 1-.74-.68.75.75 0 0 1 .68-.82l14.59-1.35a.75.75 0 1 1 .14 1.49l-14.6 1.36h-.07z"/><rect width="54.41" height="8.03" x="132.853" y="206.784" fill="#DAF0FA" rx="3.63" transform="rotate(6.37 160.058 210.799)"/><path fill="#123456" d="M183.43 218.19a3.91 3.91 0 0 1-.49 0l-46.86-5.24a4.38 4.38 0 0 1-3.87-4.84l.09-.76a4.37 4.37 0 0 1 4.84-3.87l46.85 5.23a4.38 4.38 0 0 1 3.87 4.84l-.08.77a4.4 4.4 0 0 1-4.35 3.87zm-46.78-13.27a2.88 2.88 0 0 0-2.86 2.56l-.09.77a2.87 2.87 0 0 0 2.54 3.18l46.86 5.24a2.89 2.89 0 0 0 3.18-2.54l.09-.77a2.84 2.84 0 0 0-.61-2.12 2.9 2.9 0 0 0-1.93-1.07l-46.86-5.23-.32-.02z"/><path fill="#D1ECF9" d="m229.38 146.97-.06 13.96"/><path fill="#92D2F1" d="M229.33 163c-.53 0-.95-.76-.95-1.67v-14c0-.91.43-1.65 1-1.65.53 0 1 .75.95 1.67v14c-.05.95-.47 1.65-1 1.65z"/><path fill="#123456" d="M229.33 163.79c-1 0-1.71-1-1.7-2.43v-14c0-1.37.74-2.4 1.71-2.4s1.71 1 1.7 2.42v14c-.01 1.37-.74 2.41-1.71 2.41zm.08-17.22a1.59 1.59 0 0 0-.21.83v14c-.012.296.057.59.2.85a1.57 1.57 0 0 0 .21-.84v-14a1.57 1.57 0 0 0-.24-.84h.04z"/><path fill="#92D2F1" d="M236.34 162.25c0 .44-.26.79-.57.79l-12.92-.04c-.32 0-.57-.36-.57-.79v-.79c0-.43.26-.78.58-.78l12.92.06c.32 0 .57.35.57.79l-.01.76z"/><path fill="#123456" d="m235.76 163.79-12.93-.06a1.42 1.42 0 0 1-1.31-1.54v-.79a1.43 1.43 0 0 1 1.33-1.53l12.92.06a1.43 1.43 0 0 1 1.32 1.54v.79a1.42 1.42 0 0 1-1.33 1.53zm-12.74-1.56 12.56.06v-.82l-12.57-.06v.86l.01-.04z"/><path fill="#92D2F1" d="M236.35 139.46a.3.3 0 0 0 0-.1l.06-14.11a.38.38 0 0 0-.37-.38l-13.16-.06a.37.37 0 0 0-.38.37l-.06 14.12a.59.59 0 0 0 0 .13v.55a7 7 0 0 0 13.92.06 3.75 3.75 0 0 0-.01-.58z"/><path fill="#123456" d="M229.42 147.72a7.72 7.72 0 0 1-7.68-7.74v-.49a1.34 1.34 0 0 1 0-.2l.06-14.11a1.12 1.12 0 0 1 .34-.8 1 1 0 0 1 .79-.32l13.16.06c.62.005 1.12.51 1.12 1.13l-.06 14.12a1 1 0 0 1 0 .12 3.46 3.46 0 0 1 0 .56 7.7 7.7 0 0 1-7.7 7.67h-.03zm-6.21-8.48a.71.71 0 0 1 0 .25v.49a6.22 6.22 0 0 0 6.19 6.24 6.33 6.33 0 0 0 4.4-1.8 6.14 6.14 0 0 0 1.83-4.38 3 3 0 0 0 0-.52.75.75 0 0 1 0-.21l.06-13.69-12.41-.06-.07 13.68z"/><path fill="#1B9FE1" d="M229.38 147a7 7 0 0 0 7-6.93 3.75 3.75 0 0 0 0-.58.3.3 0 0 0 0-.1v-6.13c-4.13 1.36-8.75-1.91-8.75-1.91a4.86 4.86 0 0 0-5.14-.81v8.79a.59.59 0 0 0 0 .13v.55a7 7 0 0 0 6.89 6.99z"/><path fill="#123456" d="M229.42 147.72a7.72 7.72 0 0 1-7.68-7.74v-.49a1.34 1.34 0 0 1 0-.2l.06-14.11a1.12 1.12 0 0 1 .34-.8 1 1 0 0 1 .79-.32l13.16.06c.62.005 1.12.51 1.12 1.13l-.06 14.12a1 1 0 0 1 0 .12 3.46 3.46 0 0 1 0 .56 7.7 7.7 0 0 1-7.7 7.67h-.03zm-6.21-8.48a.71.71 0 0 1 0 .25v.49a6.22 6.22 0 0 0 6.19 6.24 6.33 6.33 0 0 0 4.4-1.8 6.14 6.14 0 0 0 1.83-4.38 3 3 0 0 0 0-.52.75.75 0 0 1 0-.21l.06-13.69-12.41-.06-.07 13.68z"/><circle cx="225.86" cy="136.75" r="1" fill="#92D2F1"/><circle cx="232.07" cy="138.19" r="1" fill="#92D2F1"/><circle cx="229.35" cy="140.02" r="1" fill="#92D2F1"/><path fill="#F9E3CD" d="m235.74 138.66 2.72-.33-1.73 7.31-4.88 4.67-.74-3.7 2.6-1.16.82-2.21z"/><path fill="#123456" d="M231.85 151.07a.85.85 0 0 1-.22 0 .74.74 0 0 1-.51-.57l-.75-3.7a.76.76 0 0 1 .43-.84l2.32-1 .71-1.92 1.18-4.51a.76.76 0 0 1 .63-.56l2.72-.33a.72.72 0 0 1 .65.25.71.71 0 0 1 .17.67l-1.72 7.32a.82.82 0 0 1-.21.36l-4.88 4.68a.78.78 0 0 1-.52.15zm.11-4 .36 1.78 3.73-3.58 1.43-6.05-1.15.14-1.08 4.09-.84 2.28a.74.74 0 0 1-.4.43l-2.05.91z"/><path fill="#F9E3CD" d="M222.76 153.2s9.07-.85 11.65-4l2-5.45c.17-.62 0-1.13-.71-1.05h-1a1 1 0 0 0-.79.54l-1.42 3.15s-6.3-.42-9.22 1.65"/><path fill="#123456" d="M222.7 154a.75.75 0 0 1-.57-1.228.74.74 0 0 1 .51-.262c2.4-.23 9-1.32 11.06-3.62l2-5.33h-1a.3.3 0 0 0-.09.1l-1.43 3.15a.75.75 0 0 1-.73.44c-.06 0-6.07-.37-8.73 1.51a.753.753 0 1 1-.87-1.23c2.62-1.85 7.55-1.86 9.17-1.8l1.22-2.69a1.73 1.73 0 0 1 1.39-1h1.1a1.29 1.29 0 0 1 1.19.46 1.66 1.66 0 0 1 .23 1.55l-2.06 5.5a.71.71 0 0 1-.13.22c-2.76 3.23-11.8 4.14-12.2 4.23h-.06z"/><path fill="#FFF" d="M226.19 24.37c-103.26 0-187 83.71-187 187a187.7 187.7 0 0 0 5.34 44.58h32c-18.972-63.907 4.727-132.81 58.996-171.525 54.269-38.715 127.133-38.7 181.387.036 54.254 38.738 77.925 107.65 58.927 171.549h32a187.57 187.57 0 0 0 5.36-44.64c-.04-103.29-83.75-187-187.01-187z" opacity=".2"/><path fill="#123456" d="M409.49 255.88H36.76a.75.75 0 1 1 0-1.5h372.73a.75.75 0 1 1 0 1.5z"/><circle cx="19.63" cy="219.69" r="2.46" fill="#FFCC05"/><circle cx="424.46" cy="234.68" r="2.46" fill="#FFCC05"/><path fill="#FFCC05" d="M131.58 20a3 3 0 1 1 0-6 3 3 0 0 1 0 6zm0-4.92a2 2 0 1 0 2 2 2 2 0 0 0-2-1.99v-.01zm185.03 16.63a3.09 3.09 0 1 1 3.08-3.08 3.08 3.08 0 0 1-3.08 3.08zm0-5.17a2.09 2.09 0 1 0-.02 4.18 2.09 2.09 0 0 0 .02-4.18zM200.27 16.09a3.09 3.09 0 1 1 3.08-3.09 3.1 3.1 0 0 1-3.08 3.09zm0-5.17a2.09 2.09 0 1 0-.02 4.18 2.09 2.09 0 0 0 .02-4.18zm228.97 202.32a3.09 3.09 0 1 1-.02-6.18 3.09 3.09 0 0 1 .02 6.18zm0-5.17a2.09 2.09 0 1 0 2.08 2.08 2.08 2.08 0 0 0-2.08-2.08zM28.62 196.53a3 3 0 1 1 0-6 3 3 0 0 1 0 6zm0-4.92a2 2 0 1 0 0 4 2 2 0 0 0 0-4zM170.49 18.79c-4.19 0-3.5-4-3.5-4-.41-.62-.75-.8-1-.78-.25.02-.61.16-1 .78 0 0 .7 4-3.49 4 0 0-1.28 1.12 0 1.59s3.53-.45 3.53 4.46c.166.246.372.462.61.64.1.1.24.15.38.14a.48.48 0 0 0 .39-.15 2.51 2.51 0 0 0 .61-.63c0-4.91 2.24-4 3.52-4.46 1.28-.46-.05-1.59-.05-1.59zM19.05 168.37c-4.19 0-3.49-4-3.49-4-.42-.62-.76-.8-1-.78-.24.02-.61.16-1 .78 0 0 .7 4-3.49 4 0 0-1.28 1.12 0 1.59s3.54-.45 3.54 4.46c.16.245.363.459.6.63a.5.5 0 0 0 .39.15.47.47 0 0 0 .38-.15 2.51 2.51 0 0 0 .61-.63c0-4.91 2.25-4 3.53-4.47 1.28-.47-.07-1.58-.07-1.58zM291.08 12.49c-4.4 0-3.67-4.19-3.67-4.19-.44-.65-.8-.84-1.08-.82-.28.02-.64.17-1.08.82 0 0 .74 4.19-3.66 4.19 0 0-1.34 1.18 0 1.68s3.71-.47 3.71 4.68c.173.253.386.476.63.66a.58.58 0 0 0 .41.16.56.56 0 0 0 .4-.16 2.74 2.74 0 0 0 .64-.66c0-5.15 2.36-4.19 3.7-4.69 1.34-.5 0-1.67 0-1.67zm143.6 165.78c-4.4 0-3.67-4.19-3.67-4.19-.43-.65-.79-.84-1.08-.82-.29.02-.64.17-1.08.82 0 0 .74 4.19-3.66 4.19 0 0-1.34 1.18 0 1.68s3.71-.47 3.71 4.68c.175.254.391.478.64.66a.57.57 0 0 0 .4.16.58.58 0 0 0 .41-.16 2.82 2.82 0 0 0 .63-.66c0-5.15 2.36-4.19 3.7-4.69 1.34-.5 0-1.67 0-1.67z"/><path fill="#FAA919" d="M294.7 33.81a142.74 142.74 0 0 1-26.17-12 117.28 117.28 0 0 1-19.77-15.47 5.92 5.92 0 0 0-.58-.58l-.59.58a116.66 116.66 0 0 1-19.73 15.48 142.74 142.74 0 0 1-26.17 12c5.37 65.42 39.17 77.54 45.9 79.31l.59.15.58-.15c6.77-1.78 40.57-13.9 45.94-79.32z"/><path fill="#FFCC05" d="m227.86 31.22-1.81 1c-.87.44-1.73.86-2.57 1.26-1.63.79-3.2 1.49-4.64 2.1-4.82 2.06-8.28 3.18-8.28 3.18 4.35 53 31.72 62.79 37.18 64.23v.22l.47-.1.47.1v-.22c5.46-1.44 32.83-11.25 37.17-64.23A115.3 115.3 0 0 1 264.66 29a94.89 94.89 0 0 1-16-12.54 4.59 4.59 0 0 0-.47-.46c-.23.21-.47.46-.47.46A94.65 94.65 0 0 1 231.76 29l-1.29.77"/><path fill="#1694DD" d="M247.09 76.44h-.1a4 4 0 0 1-3.16-1.53L232.57 62.8a4.36 4.36 0 0 1 .52-5.94 3.9 3.9 0 0 1 5.67.57l8.05 8 14.37-21.28a3.9 3.9 0 0 1 5.65-.74 4.37 4.37 0 0 1 .72 5.92l-17.44 25.48a4 4 0 0 1-3.02 1.63z"/><path fill="#FFF" d="m248.21 5.76-.59.58a116.66 116.66 0 0 1-19.73 15.48 142.74 142.74 0 0 1-26.17 12c5.37 65.42 39.17 77.54 45.9 79.31l.59.15s.41-107.15 0-107.52z" opacity=".3"/><path fill="#123456" d="M220.76 35.45a.76.76 0 0 1-.69-.45.75.75 0 0 1 .38-1c2-.88 3.9-1.8 5.72-2.74a.75.75 0 0 1 1 .32.76.76 0 0 1-.32 1c-1.85.95-3.79 1.89-5.8 2.78a.66.66 0 0 1-.29.09z"/><path fill="#123456" d="M248.68 103.91h-.12l-.35-.07-.35.07a.79.79 0 0 1-.61-.17 1 1 0 0 1-.16-.19c-6.44-1.85-33-12.64-37.27-64.77a.75.75 0 0 1 .51-.77s2.59-.85 6.31-2.36a.74.74 0 0 1 1 .41.75.75 0 0 1-.41 1 122.56 122.56 0 0 1-5.85 2.21c4.45 51.93 31.23 61.57 36.57 63a.68.68 0 0 1 .21.1h.13a.88.88 0 0 1 .22-.1c5.34-1.4 32.11-11 36.57-63a118.47 118.47 0 0 1-20.79-9.59 95.14 95.14 0 0 1-16.06-12.6 95.9 95.9 0 0 1-16.07 12.6.751.751 0 0 1-.77-1.29 93.88 93.88 0 0 0 15.84-12.43s.25-.26.49-.48a.75.75 0 0 1 1 0c.194.169.378.349.55.54a93.82 93.82 0 0 0 15.79 12.38 115.86 115.86 0 0 0 21 9.64.75.75 0 0 1 .51.77c-4.28 52.13-30.83 62.92-37.28 64.77a.9.9 0 0 1-.15.19.8.8 0 0 1-.46.14z"/><path fill="#123456" d="M248.2 114h-.11l-.65-.16c-6.82-1.79-41.06-14.08-46.47-80a.75.75 0 0 1 .52-.77 143.65 143.65 0 0 0 26-11.92A115.91 115.91 0 0 0 247.1 5.8s.31-.32.6-.59a.75.75 0 0 1 1 0c.238.2.46.422.66.66a116.55 116.55 0 0 0 19.55 15.32 143 143 0 0 0 26 11.92.75.75 0 0 1 .51.77c-5.4 65.9-39.65 78.19-46.46 80-.25.06-.504.1-.76.12zm-45.68-79.66c5.47 64.37 38.68 76.32 45.3 78.06l.39.1.4-.1c6.61-1.74 39.82-13.69 45.29-78.06a145.59 145.59 0 0 1-25.76-11.88 117.06 117.06 0 0 1-19.87-15.59l-.06-.06v.05a117.5 117.5 0 0 1-19.88 15.6 145.59 145.59 0 0 1-25.81 11.88z"/></g></svg>